<?xml version="1.0" encoding="UTF-8"?>
<!DOCTYPE svg PUBLIC "-//W3C//DTD SVG 1.1//EN" "http://www.w3.org/Graphics/SVG/1.1/DTD/svg11.dtd">
<svg xmlns="http://www.w3.org/2000/svg" version="1.1" width="319px" height="129px" style="shape-rendering:geometricPrecision; text-rendering:geometricPrecision; image-rendering:optimizeQuality; fill-rule:evenodd; clip-rule:evenodd" xmlns:xlink="http://www.w3.org/1999/xlink">
<g><path style="opacity:1" fill="#0a0a0a" d="M 53.5,-0.5 C 61.8333,-0.5 70.1667,-0.5 78.5,-0.5C 88.6546,1.41045 97.6546,5.74378 105.5,12.5C 107.833,15.5 110.5,18.1667 113.5,20.5C 113.738,22.4044 114.738,23.7377 116.5,24.5C 116.427,26.0269 117.094,27.0269 118.5,27.5C 118.427,29.0269 119.094,30.0269 120.5,30.5C 122.008,32.1815 123.008,34.1815 123.5,36.5C 114.225,38.4733 104.558,39.14 94.5,38.5C 93.1667,35.1667 90.8333,32.8333 87.5,31.5C 87.0269,30.0937 86.0269,29.427 84.5,29.5C 71.3265,23.8806 58.3265,24.2139 45.5,30.5C 43.9731,30.427 42.9731,31.0937 42.5,32.5C 41.1667,34.5 39.5,36.1667 37.5,37.5C 36.0937,37.9731 35.427,38.9731 35.5,40.5C 26.5603,53.777 25.2269,67.777 31.5,82.5C 31.427,84.0269 32.0937,85.0269 33.5,85.5C 33.427,87.0269 34.0937,88.0269 35.5,88.5C 36.8333,91.8333 39.1667,94.1667 42.5,95.5C 43.1667,95.5 43.5,95.8333 43.5,96.5C 43.9731,97.9063 44.9731,98.573 46.5,98.5C 58.6775,104.719 71.0108,105.052 83.5,99.5C 85.0269,99.573 86.0269,98.9063 86.5,97.5C 89.8333,96.1667 92.1667,93.8333 93.5,90.5C 103.167,90.5 112.833,90.5 122.5,90.5C 122.5,91.5 122.5,92.5 122.5,93.5C 122.34,95.153 121.674,96.4863 120.5,97.5C 119.094,97.9731 118.427,98.9731 118.5,100.5C 118.573,102.027 117.906,103.027 116.5,103.5C 115.094,103.973 114.427,104.973 114.5,106.5C 113.833,107.833 112.833,108.833 111.5,109.5C 109.833,110.5 108.5,111.833 107.5,113.5C 99.3511,121.408 89.6844,126.408 78.5,128.5C 69.8333,128.5 61.1667,128.5 52.5,128.5C 45.7008,127.009 39.3674,124.343 33.5,120.5C 33.0269,119.094 32.0269,118.427 30.5,118.5C 30.0269,117.094 29.0269,116.427 27.5,116.5C 27.0269,115.094 26.0269,114.427 24.5,114.5C 22.5,113.167 20.8333,111.5 19.5,109.5C 19.573,107.973 18.9063,106.973 17.5,106.5C 1.36261,87.3082 -2.80405,65.6415 5,41.5C 6.60755,37.9439 8.44089,34.6106 10.5,31.5C 11.9063,31.0269 12.573,30.0269 12.5,28.5C 13.9063,28.0269 14.573,27.0269 14.5,25.5C 16.2624,24.7377 17.2624,23.4044 17.5,21.5C 20.8333,18.8333 23.8333,15.8333 26.5,12.5C 28.4044,12.2624 29.7377,11.2624 30.5,9.5C 32.0269,9.57298 33.0269,8.90632 33.5,7.5C 39.7956,3.84723 46.4623,1.18056 53.5,-0.5 Z"/></g>
<g><path style="opacity:0.439" fill="#919191" d="M 247.5,4.5 C 239.167,4.5 230.833,4.5 222.5,4.5C 222.5,5.5 222.5,6.5 222.5,7.5C 221.566,6.43236 221.232,5.09903 221.5,3.5C 230.349,3.17364 239.016,3.50698 247.5,4.5 Z"/></g>
<g><path style="opacity:0.439" fill="#919191" d="M 290.5,4.5 C 298.984,3.50698 307.651,3.17364 316.5,3.5C 316.768,5.09903 316.434,6.43236 315.5,7.5C 315.5,6.5 315.5,5.5 315.5,4.5C 307.167,4.5 298.833,4.5 290.5,4.5 Z"/></g>
<g><path style="opacity:1" fill="#000000" d="M 152.5,4.5 C 152.5,21.5 152.5,38.5 152.5,55.5C 166.01,55.8289 179.344,55.4956 192.5,54.5C 192.5,37.8333 192.5,21.1667 192.5,4.5C 200.5,4.5 208.5,4.5 216.5,4.5C 216.5,45.8333 216.5,87.1667 216.5,128.5C 208.5,128.5 200.5,128.5 192.5,128.5C 192.5,111.833 192.5,95.1667 192.5,78.5C 179.344,77.5044 166.01,77.1711 152.5,77.5C 152.5,94.5 152.5,111.5 152.5,128.5C 144.833,128.5 137.167,128.5 129.5,128.5C 129.5,87.1667 129.5,45.8333 129.5,4.5C 137.167,4.5 144.833,4.5 152.5,4.5 Z"/></g>
<g><path style="opacity:1" fill="#0c0c0c" d="M 247.5,4.5 C 255.129,21.5311 262.296,38.8644 269,56.5C 275.704,38.8644 282.871,21.5311 290.5,4.5C 298.833,4.5 307.167,4.5 315.5,4.5C 315.5,5.5 315.5,6.5 315.5,7.5C 304.62,32.9293 293.454,58.2626 282,83.5C 281.5,98.4963 281.333,113.496 281.5,128.5C 273.167,128.5 264.833,128.5 256.5,128.5C 256.667,113.83 256.5,99.1629 256,84.5C 252.879,77.9276 250.045,71.2609 247.5,64.5C 247.598,62.4471 246.931,60.7804 245.5,59.5C 243.269,56.1637 241.603,52.497 240.5,48.5C 240.598,46.4471 239.931,44.7804 238.5,43.5C 236.269,40.1637 234.603,36.497 233.5,32.5C 233.598,30.4471 232.931,28.7804 231.5,27.5C 229.269,24.1637 227.603,20.497 226.5,16.5C 226.598,14.4471 225.931,12.7804 224.5,11.5C 223.326,10.4863 222.66,9.15298 222.5,7.5C 222.5,6.5 222.5,5.5 222.5,4.5C 230.833,4.5 239.167,4.5 247.5,4.5 Z"/></g>
<g><path style="opacity:0.965" fill="#525252" d="M 152.5,4.5 C 144.833,4.5 137.167,4.5 129.5,4.5C 129.5,45.8333 129.5,87.1667 129.5,128.5C 129.167,128.5 128.833,128.5 128.5,128.5C 128.5,86.8333 128.5,45.1667 128.5,3.5C 136.684,3.17428 144.684,3.50761 152.5,4.5 Z"/></g>
<g><path style="opacity:0.686" fill="#858585" d="M 192.5,4.5 C 200.65,3.50728 208.983,3.17395 217.5,3.5C 217.5,45.1667 217.5,86.8333 217.5,128.5C 217.167,128.5 216.833,128.5 216.5,128.5C 216.5,87.1667 216.5,45.8333 216.5,4.5C 208.5,4.5 200.5,4.5 192.5,4.5 Z"/></g>
<g><path style="opacity:0.949" fill="#757575" d="M 33.5,7.5 C 33.0269,8.90632 32.0269,9.57298 30.5,9.5C 30.9731,8.09368 31.9731,7.42702 33.5,7.5 Z"/></g>
<g><path style="opacity:0.949" fill="#686868" d="M 30.5,9.5 C 29.7377,11.2624 28.4044,12.2624 26.5,12.5C 27.2623,10.7376 28.5956,9.73758 30.5,9.5 Z"/></g>
<g><path style="opacity:0.024" fill="#7f7f7f" d="M 105.5,12.5 C 109.167,14.1667 111.833,16.8333 113.5,20.5C 110.5,18.1667 107.833,15.5 105.5,12.5 Z"/></g>
<g><path style="opacity:0.651" fill="#7f7f7f" d="M 224.5,11.5 C 225.931,12.7804 226.598,14.4471 226.5,16.5C 225.069,15.2196 224.402,13.5529 224.5,11.5 Z"/></g>
<g><path style="opacity:0.98" fill="#6a6a6a" d="M 26.5,12.5 C 23.8333,15.8333 20.8333,18.8333 17.5,21.5C 19.5,17.5 22.5,14.5 26.5,12.5 Z"/></g>
<g><path style="opacity:0.984" fill="#565656" d="M 113.5,20.5 C 115.262,21.2623 116.262,22.5956 116.5,24.5C 114.738,23.7377 113.738,22.4044 113.5,20.5 Z"/></g>
<g><path style="opacity:0.973" fill="#5d5d5d" d="M 17.5,21.5 C 17.2624,23.4044 16.2624,24.7377 14.5,25.5C 14.7376,23.5956 15.7376,22.2623 17.5,21.5 Z"/></g>
<g><path style="opacity:0.898" fill="#656565" d="M 116.5,24.5 C 117.906,24.9731 118.573,25.9731 118.5,27.5C 117.094,27.0269 116.427,26.0269 116.5,24.5 Z"/></g>
<g><path style="opacity:0.91" fill="#656565" d="M 14.5,25.5 C 14.573,27.0269 13.9063,28.0269 12.5,28.5C 12.427,26.9731 13.0937,25.9731 14.5,25.5 Z"/></g>
<g><path style="opacity:0.78" fill="#727272" d="M 118.5,27.5 C 119.906,27.9731 120.573,28.9731 120.5,30.5C 119.094,30.0269 118.427,29.0269 118.5,27.5 Z"/></g>
<g><path style="opacity:0.824" fill="#6e6e6e" d="M 12.5,28.5 C 12.573,30.0269 11.9063,31.0269 10.5,31.5C 10.427,29.9731 11.0937,28.9731 12.5,28.5 Z"/></g>
<g><path style="opacity:0.835" fill="#747474" d="M 84.5,29.5 C 86.0269,29.427 87.0269,30.0937 87.5,31.5C 85.9731,31.573 84.9731,30.9063 84.5,29.5 Z"/></g>
<g><path style="opacity:0.651" fill="#7f7f7f" d="M 231.5,27.5 C 232.931,28.7804 233.598,30.4471 233.5,32.5C 232.069,31.2196 231.402,29.5529 231.5,27.5 Z"/></g>
<g><path style="opacity:0.016" fill="#909090" d="M 45.5,30.5 C 45.0269,31.9063 44.0269,32.573 42.5,32.5C 42.9731,31.0937 43.9731,30.427 45.5,30.5 Z"/></g>
<g><path style="opacity:1" fill="#616161" d="M 87.5,31.5 C 90.8333,32.8333 93.1667,35.1667 94.5,38.5C 91.8333,36.5 89.5,34.1667 87.5,31.5 Z"/></g>
<g><path style="opacity:0.047" fill="#858585" d="M 37.5,37.5 C 37.573,39.0269 36.9063,40.0269 35.5,40.5C 35.427,38.9731 36.0937,37.9731 37.5,37.5 Z"/></g>
<g><path style="opacity:0.612" fill="#898989" d="M 123.5,36.5 C 124.404,37.209 124.737,38.209 124.5,39.5C 114.319,39.8274 104.319,39.494 94.5,38.5C 104.558,39.14 114.225,38.4733 123.5,36.5 Z"/></g>
<g><path style="opacity:0.651" fill="#7f7f7f" d="M 238.5,43.5 C 239.931,44.7804 240.598,46.4471 240.5,48.5C 239.069,47.2196 238.402,45.5529 238.5,43.5 Z"/></g>
<g><path style="opacity:0.984" fill="#555555" d="M 152.5,4.5 C 153.497,20.9916 153.83,37.6583 153.5,54.5C 166.5,54.5 179.5,54.5 192.5,54.5C 179.344,55.4956 166.01,55.8289 152.5,55.5C 152.5,38.5 152.5,21.5 152.5,4.5 Z"/></g>
<g><path style="opacity:0.651" fill="#7f7f7f" d="M 245.5,59.5 C 246.931,60.7804 247.598,62.4471 247.5,64.5C 246.069,63.2196 245.402,61.5529 245.5,59.5 Z"/></g>
<g><path style="opacity:0.439" fill="#878787" d="M 192.5,78.5 C 179.5,78.5 166.5,78.5 153.5,78.5C 153.5,95.1667 153.5,111.833 153.5,128.5C 153.167,128.5 152.833,128.5 152.5,128.5C 152.5,111.5 152.5,94.5 152.5,77.5C 166.01,77.1711 179.344,77.5044 192.5,78.5 Z"/></g>
<g><path style="opacity:0.592" fill="#858585" d="M 31.5,82.5 C 32.9063,82.9731 33.573,83.9731 33.5,85.5C 32.0937,85.0269 31.427,84.0269 31.5,82.5 Z"/></g>
<g><path style="opacity:0.686" fill="#858585" d="M 33.5,85.5 C 34.9063,85.9731 35.573,86.9731 35.5,88.5C 34.0937,88.0269 33.427,87.0269 33.5,85.5 Z"/></g>
<g><path style="opacity:0.992" fill="#696969" d="M 35.5,88.5 C 38.1667,90.5 40.5,92.8333 42.5,95.5C 39.1667,94.1667 36.8333,91.8333 35.5,88.5 Z"/></g>
<g><path style="opacity:0.235" fill="#9a9a9a" d="M 93.5,90.5 C 103.319,89.506 113.319,89.1726 123.5,89.5C 123.768,91.099 123.434,92.4324 122.5,93.5C 122.5,92.5 122.5,91.5 122.5,90.5C 112.833,90.5 103.167,90.5 93.5,90.5 Z"/></g>
<g><path style="opacity:0.933" fill="#6b6b6b" d="M 93.5,90.5 C 92.1667,93.8333 89.8333,96.1667 86.5,97.5C 88.5,94.8333 90.8333,92.5 93.5,90.5 Z"/></g>
<g><path style="opacity:0.031" fill="#888888" d="M 43.5,96.5 C 45.0269,96.427 46.0269,97.0937 46.5,98.5C 44.9731,98.573 43.9731,97.9063 43.5,96.5 Z"/></g>
<g><path style="opacity:0.929" fill="#797979" d="M 86.5,97.5 C 86.0269,98.9063 85.0269,99.573 83.5,99.5C 83.9731,98.0937 84.9731,97.427 86.5,97.5 Z"/></g>
<g><path style="opacity:0.349" fill="#888888" d="M 120.5,97.5 C 120.573,99.0269 119.906,100.027 118.5,100.5C 118.427,98.9731 119.094,97.9731 120.5,97.5 Z"/></g>
<g><path style="opacity:0.047" fill="#878787" d="M 116.5,103.5 C 116.573,105.027 115.906,106.027 114.5,106.5C 114.427,104.973 115.094,103.973 116.5,103.5 Z"/></g>
<g><path style="opacity:0.047" fill="#878787" d="M 17.5,106.5 C 18.9063,106.973 19.573,107.973 19.5,109.5C 18.0937,109.027 17.427,108.027 17.5,106.5 Z"/></g>
<g><path style="opacity:0.008" fill="#909090" d="M 111.5,109.5 C 111.167,111.833 109.833,113.167 107.5,113.5C 108.5,111.833 109.833,110.5 111.5,109.5 Z"/></g>
<g><path style="opacity:0.835" fill="#787878" d="M 24.5,114.5 C 26.0269,114.427 27.0269,115.094 27.5,116.5C 25.9731,116.573 24.9731,115.906 24.5,114.5 Z"/></g>
<g><path style="opacity:0.91" fill="#646464" d="M 27.5,116.5 C 29.0269,116.427 30.0269,117.094 30.5,118.5C 28.9731,118.573 27.9731,117.906 27.5,116.5 Z"/></g>
<g><path style="opacity:0.812" fill="#6f6f6f" d="M 30.5,118.5 C 32.0269,118.427 33.0269,119.094 33.5,120.5C 31.9731,120.573 30.9731,119.906 30.5,118.5 Z"/></g>
</svg>
