<svg version="1.1" id="Layer_1" xmlns="http://www.w3.org/2000/svg" xmlns:xlink="http://www.w3.org/1999/xlink" x="0px" y="0px"
	 width="100%" viewBox="0 0 1024 688" enable-background="new 0 0 1024 688" xml:space="preserve">
<path fill="#000000" opacity="1.000000" stroke="none" 
	d="
M623.449951,689.000000 
	C624.809814,681.917053 625.553345,674.292236 628.785400,667.932068 
	C631.138794,663.301208 634.584167,659.092712 636.443420,654.009460 
	C641.831543,639.277954 650.406067,626.192383 658.014771,612.608765 
	C658.827820,611.157349 659.815491,609.718811 660.232605,608.144470 
	C662.594788,599.230469 668.348816,591.923340 674.800354,586.488586 
	C682.031982,580.396667 684.167053,572.466064 687.978271,564.929016 
	C690.133728,560.666565 692.767212,556.318115 696.213379,553.114075 
	C701.173523,548.502441 704.372498,543.089661 706.681702,536.960022 
	C707.884277,533.768127 709.988159,531.643494 713.188721,530.540344 
	C714.628540,530.044128 716.149231,529.418030 716.786072,528.005005 
	C720.325928,520.150757 727.601257,514.615051 730.029175,506.010529 
	C732.029175,498.922638 736.600952,493.373657 742.184631,488.657898 
	C744.790039,486.457428 746.295776,483.385071 750.077698,482.004425 
	C753.467651,480.766815 755.924744,476.997314 756.994507,473.198883 
	C759.105835,465.702087 763.983704,460.053162 769.043518,454.550720 
	C771.739075,451.619293 775.524536,449.551483 777.747681,446.350464 
	C784.325378,436.879639 793.930054,430.454102 801.400452,421.913818 
	C805.412415,417.327454 806.218018,410.997498 810.234497,406.467987 
	C810.341370,406.347473 810.353210,406.135406 810.468079,406.030334 
	C819.271851,397.983582 824.140442,387.411224 829.248718,376.971588 
	C829.874695,375.692291 831.049255,374.217377 832.297913,373.788269 
	C837.351501,372.051544 839.312744,367.991394 840.805054,363.457886 
	C842.915833,357.045502 847.882202,353.699219 853.854370,351.672943 
	C856.782471,350.679474 857.872070,349.129669 859.079041,346.112976 
	C861.401672,340.307953 862.681885,332.974915 870.818359,331.566437 
	C872.525085,331.270996 872.617859,329.830658 872.484497,328.420868 
	C872.381226,327.328674 871.697998,326.597626 870.835999,326.045593 
	C865.405823,322.568268 859.775757,320.236420 853.041687,321.722870 
	C849.438110,322.518250 846.434021,321.948395 843.274658,318.753815 
	C839.242188,314.676453 833.066711,313.537201 827.408142,312.869873 
	C822.708557,312.315582 817.889038,311.841431 813.074707,312.423035 
	C810.702209,312.709686 809.488403,310.198700 807.419739,309.533508 
	C800.560913,307.327972 794.344543,303.751617 786.602295,303.415680 
	C782.685059,303.245667 779.830688,302.525421 777.087646,305.591187 
	C776.314392,306.455353 775.425964,306.233429 774.396240,305.743835 
	C769.134705,303.242249 763.653564,301.146973 758.593445,298.298187 
	C755.484863,296.548126 752.892456,296.447998 749.703003,297.663696 
	C740.728271,301.084412 732.605591,299.319061 725.419800,293.054108 
	C723.633850,291.497009 721.528564,291.336182 719.331543,291.333252 
	C712.162964,291.323608 704.468384,292.473145 698.009460,289.893158 
	C688.833069,286.227661 679.696533,287.378601 670.482361,286.868408 
	C665.477722,286.591309 660.633179,287.896545 655.650513,288.069519 
	C651.585083,288.210663 648.986023,292.707642 646.113342,295.673706 
	C644.247375,297.600311 642.703003,298.900299 639.681091,297.863617 
	C636.075562,296.626770 635.512024,300.044098 634.212341,302.262329 
	C625.059021,317.885712 626.996582,334.393219 629.519348,351.248871 
	C631.412598,363.897858 636.305603,375.146393 642.089111,386.262054 
	C643.361267,388.707092 646.401733,391.970276 643.421570,394.326782 
	C640.272034,396.817200 637.873413,393.271667 635.553345,391.220917 
	C634.328491,390.138275 632.930603,389.098633 631.425842,388.524017 
	C629.540100,387.803925 628.430237,386.494080 628.904846,384.782471 
	C629.961365,380.972870 627.615417,378.542877 626.010742,375.669556 
	C621.857544,368.232391 620.831116,359.812622 619.910400,351.645874 
	C617.425781,329.608032 615.853455,307.332001 622.021545,285.713898 
	C625.578064,273.249054 630.228760,260.873444 641.710754,252.524078 
	C648.057556,247.908783 654.752686,244.016983 661.422668,239.999985 
	C662.669373,239.249130 663.833862,239.190918 665.221436,239.453796 
	C668.214233,240.020782 671.213745,239.846008 674.083435,238.761017 
	C676.729858,237.760422 679.181763,237.598328 681.589539,239.466934 
	C682.834412,240.433090 684.301453,240.492325 685.810547,239.681366 
	C689.641663,237.622589 693.429871,238.227219 697.374573,239.655258 
	C700.495667,240.785141 703.572876,243.360214 707.226868,241.009903 
	C712.023010,246.570892 719.330872,242.751755 725.252625,245.978348 
	C730.207520,248.678162 736.643066,248.753799 741.147827,253.251572 
	C741.684875,253.787857 743.882690,252.660767 745.526489,252.250885 
	C747.372803,255.836380 750.628967,257.193817 754.412048,257.794250 
	C758.562195,258.452942 762.485474,259.799103 765.972961,262.228821 
	C773.753601,267.649597 783.556946,268.995270 791.180481,274.773651 
	C793.059692,276.197998 795.300781,275.716339 797.428040,274.996887 
	C801.224915,273.712860 804.588867,274.490234 807.691406,277.020294 
	C809.623779,278.596130 811.857971,279.803619 813.777771,281.392639 
	C817.825989,284.743286 822.316833,286.131409 827.615540,285.796143 
	C832.700623,285.474396 837.433350,286.885651 841.736023,289.896027 
	C845.304199,292.392517 849.857056,292.624786 853.712341,294.081573 
	C859.543457,296.284973 866.443054,295.959717 871.285706,300.607819 
	C873.877136,303.095154 876.243530,305.019226 880.404175,304.196381 
	C883.222290,303.639099 886.379395,304.892212 888.789917,306.838837 
	C891.669434,309.164093 894.004517,308.490112 896.803040,306.472626 
	C901.106567,303.370148 904.878052,300.210968 905.576721,294.439209 
	C905.894165,291.816650 907.394714,289.441742 909.165527,287.390228 
	C910.827576,285.464783 912.238403,283.940857 915.468567,285.326111 
	C918.698853,286.711395 921.912903,285.429779 924.244019,282.368103 
	C927.269531,278.394348 930.233704,274.310913 933.726868,270.770538 
	C939.491638,264.927826 945.540161,259.509796 955.014465,261.998871 
	C957.563599,262.668579 958.920959,260.200226 958.406677,257.751190 
	C957.859802,255.146942 958.560730,254.583359 961.117004,253.793976 
	C963.726868,252.988083 966.702209,250.996582 967.985352,248.676666 
	C973.362549,238.955276 983.493774,235.020447 991.504700,228.556213 
	C994.007751,226.536346 996.554749,224.898361 997.640503,221.672501 
	C998.352722,219.556458 999.364868,217.675934 1002.319580,218.442184 
	C1004.588867,219.030701 1006.066101,217.573700 1007.304626,215.874496 
	C1009.877380,212.344879 1015.573730,210.284927 1019.593445,211.416733 
	C1023.126831,212.411575 1024.895508,216.203979 1023.985718,220.834488 
	C1022.984619,225.929276 1020.291199,228.299713 1016.253418,227.745667 
	C1012.040344,227.167587 1007.957214,228.376816 1005.314880,231.329239 
	C998.168335,239.314407 989.914490,246.247803 981.468506,252.428360 
	C972.145081,259.251038 964.669434,267.464264 957.076599,275.816376 
	C949.806519,283.813446 943.889099,292.947815 935.800598,300.292633 
	C931.944519,303.794220 932.811768,308.918732 934.118408,313.463745 
	C935.413879,317.969757 939.355103,317.952271 943.122864,317.935944 
	C947.289368,317.917908 951.475891,317.674103 955.617493,317.995361 
	C960.911621,318.405975 965.444824,317.140656 969.370789,313.512451 
	C970.825623,312.167877 972.457825,310.975677 974.751770,311.484070 
	C975.487610,311.647095 976.808716,311.526672 977.078430,311.071564 
	C979.831421,306.425964 986.197144,305.486084 988.210632,300.132050 
	C988.442139,299.516479 988.685425,298.707611 989.176819,298.416748 
	C999.208496,292.479523 1001.436401,281.018280 1007.639587,272.381683 
	C1009.131653,270.304321 1009.820435,266.786926 1013.353394,268.346985 
	C1016.354980,269.672363 1015.875122,272.393219 1015.706421,275.526886 
	C1015.265015,283.726959 1012.279358,290.234802 1006.255859,295.701660 
	C1004.615601,297.190308 1003.470215,299.524323 1002.763123,301.687805 
	C1000.055542,309.972382 993.661560,315.915497 989.354614,323.180145 
	C986.949524,327.236694 981.989929,328.759827 978.315674,331.587524 
	C971.028198,337.195984 963.162170,339.662384 954.001587,337.631622 
	C951.228577,337.016937 948.340454,337.293701 945.672668,338.528107 
	C943.416138,339.572266 941.139954,339.318359 938.827515,338.789886 
	C929.908142,336.751404 920.955933,334.846039 912.077759,332.642151 
	C908.956726,331.867371 906.888672,332.249298 904.841187,335.006744 
	C886.298828,359.979309 865.667480,383.418182 849.696838,410.278442 
	C849.192261,411.127045 848.657532,412.216919 847.855713,412.589630 
	C839.692505,416.384338 835.666748,423.453766 832.389404,431.315277 
	C829.954163,437.156708 826.525879,442.182556 821.666809,446.660858 
	C816.519775,451.404602 813.371887,458.196991 807.265686,462.264343 
	C805.707825,463.302032 806.030457,465.273041 806.053040,466.914215 
	C806.112610,471.242706 804.809021,474.563049 800.530457,476.566925 
	C792.475098,480.339691 787.851562,486.999817 785.359192,495.393463 
	C783.475220,501.738159 780.505188,507.404205 774.729492,511.234528 
	C768.500122,515.365601 766.911316,521.960693 766.467346,528.742920 
	C766.205322,532.745789 764.855042,535.102295 761.189697,536.815308 
	C757.597839,538.494019 753.150757,539.659241 752.850586,545.015259 
	C752.774902,546.366272 751.017212,546.816467 749.935730,547.559998 
	C748.168152,548.775085 746.841797,550.432251 747.235901,552.565552 
	C747.966797,556.522217 745.710327,559.145264 743.757996,562.051514 
	C733.551514,577.244446 721.288208,591.013184 712.747986,607.374390 
	C709.571716,613.459412 709.646484,620.618286 705.687317,626.415161 
	C704.132690,628.691406 702.956055,630.964661 699.908508,631.320557 
	C697.855164,631.560364 696.828430,633.164917 695.751282,634.642395 
	C693.984497,637.065857 692.329712,639.573486 690.506836,641.953064 
	C686.448303,647.250732 682.182190,648.679016 675.837097,646.721741 
	C673.678833,646.056030 672.182983,646.141968 670.598450,648.046509 
	C667.883728,651.309692 664.257507,653.092163 659.962585,651.961975 
	C657.013977,651.185974 655.864746,653.001282 654.935181,654.881592 
	C651.490784,661.848328 644.276794,666.204590 641.992432,674.066223 
	C641.432617,675.992920 638.900269,677.446533 637.091797,678.888000 
	C634.049622,681.312744 632.182678,684.272888 632.025635,688.610718 
	C629.299988,689.000000 626.599976,689.000000 623.449951,689.000000 
z"/>
<path fill="#000000" opacity="1.000000" stroke="none" 
	d="
M73.183762,505.795044 
	C81.425301,514.443237 85.411522,526.681885 97.445923,531.218872 
	C98.594109,531.651733 99.484444,532.663940 99.253578,533.942871 
	C98.461075,538.333374 101.429329,540.595398 104.136543,543.077881 
	C109.307304,547.819580 113.712883,553.248718 117.756195,558.787415 
	C120.685921,559.131653 122.376984,556.639404 125.034294,556.645447 
	C131.538101,556.660339 134.200714,561.513550 136.975952,565.952271 
	C138.203049,567.914917 139.520828,569.812317 140.772980,571.756409 
	C142.299805,574.126953 144.294495,574.643555 146.757462,573.481812 
	C149.429123,572.221680 151.669281,573.422485 154.288773,574.034241 
	C159.675842,575.292236 164.583115,578.604797 170.336014,578.136536 
	C173.583481,577.872192 174.226715,580.489197 175.111069,582.380066 
	C176.630402,585.628723 178.612961,587.483826 182.378799,587.100647 
	C183.304718,587.006470 184.819885,587.220947 185.169937,587.817932 
	C187.943466,592.547852 191.677383,590.289185 195.168457,589.328979 
	C205.247223,586.556946 215.399124,585.281677 225.740219,587.650208 
	C227.673111,588.092957 230.015778,588.348938 231.339508,589.582031 
	C238.510620,596.261963 248.276794,596.356262 256.684143,599.832703 
	C262.029175,602.043030 267.788483,599.212708 273.391418,599.234741 
	C275.376038,599.242554 277.490631,598.506470 279.315857,598.985840 
	C281.899139,599.664429 283.486298,599.129639 284.626129,596.834839 
	C285.849609,594.371460 287.528595,593.527954 290.286682,594.700989 
	C294.300507,596.408081 298.440796,595.521118 302.590363,594.933533 
	C312.171234,593.576599 321.683441,592.056702 330.475037,587.689026 
	C331.666718,587.096924 332.969543,586.405579 334.298828,586.949951 
	C344.536926,591.142212 354.176727,588.273499 363.826599,584.688049 
	C366.975128,583.518127 370.004883,581.327698 373.791229,583.337708 
	C375.086670,584.025391 376.559692,582.478210 377.780426,581.662903 
	C384.440002,577.214844 391.920715,575.337402 399.731354,574.265015 
	C402.791718,573.844849 405.252289,575.157471 407.864594,576.160706 
	C414.727631,578.796448 417.297577,577.674011 419.602112,570.809326 
	C420.052155,569.468750 420.415344,567.989807 422.064362,568.209473 
	C425.254456,568.634338 426.865509,566.276611 428.914612,564.701233 
	C432.148438,562.215027 434.892883,560.055664 439.832153,560.157349 
	C444.831787,560.260437 449.894287,557.109802 454.938019,555.410278 
	C456.353333,554.933350 458.225220,553.751770 459.160980,554.252258 
	C464.434601,557.072693 468.066559,553.575378 471.029816,550.702820 
	C475.795074,546.083496 482.578888,547.366638 487.613678,543.678345 
	C498.585632,535.640808 511.727997,531.570435 523.029480,523.695618 
	C554.718506,501.614868 583.354187,475.684296 614.427307,452.870209 
	C620.335205,448.532593 625.590637,443.079498 631.956116,439.637146 
	C647.290833,431.344391 656.260986,416.243195 669.476807,405.996185 
	C677.899719,399.465454 683.836548,391.277374 690.694519,383.645630 
	C692.196350,381.974304 693.921753,381.090179 695.963562,382.374298 
	C698.173462,383.764160 697.173401,385.867188 696.126892,387.186951 
	C688.730835,396.513550 684.655945,408.517242 674.662048,415.662506 
	C653.320312,430.920990 634.676697,449.305817 614.916016,466.388519 
	C600.299255,479.024414 586.055969,492.096649 571.082397,504.318054 
	C551.284851,520.476807 530.145996,534.536804 506.815918,545.176147 
	C501.964508,547.388489 497.597656,550.511108 493.559937,554.049072 
	C492.710999,554.792969 491.394745,555.967712 490.675720,555.739685 
	C485.877350,554.217957 482.719757,557.424744 479.262756,559.488586 
	C458.341125,571.979248 437.058563,583.708130 413.544342,590.697021 
	C409.650269,591.854431 405.859253,593.938782 401.430847,592.784607 
	C400.427826,592.523132 398.947113,593.549500 397.858612,594.250610 
	C391.550049,598.314270 385.179962,601.171082 377.267273,601.914917 
	C367.426514,602.840027 357.669312,605.736023 348.140320,608.646301 
	C333.334106,613.168335 318.351746,616.107849 302.922089,617.608826 
	C285.126251,619.339966 267.299286,621.404663 250.353607,627.880737 
	C244.986008,629.932007 239.200058,629.525452 233.526443,629.333252 
	C231.821625,629.275452 229.936081,629.167358 228.807709,628.007874 
	C226.479187,625.615112 224.076797,625.965454 221.592102,627.263367 
	C217.847733,629.219299 215.119553,626.307434 211.905685,625.705444 
	C202.489319,623.941895 192.881393,621.632690 183.290771,624.734741 
	C180.546860,625.622192 178.085327,625.844238 175.628326,624.422668 
	C167.168900,619.528198 157.503387,617.812317 148.279541,616.207397 
	C141.482697,615.024719 136.496628,611.708496 130.976715,608.737976 
	C128.762863,607.546570 126.744690,606.821411 124.404427,608.040588 
	C120.740700,609.949341 119.130585,608.331177 117.838615,604.831665 
	C115.711823,599.070984 113.918419,598.481873 109.183228,601.187195 
	C107.629852,600.610535 107.253220,599.007263 106.370148,597.846558 
	C105.472725,596.666992 104.636955,595.440613 103.573784,593.954529 
	C92.549644,602.044434 93.320953,588.673035 88.309464,585.675049 
	C81.936157,589.338623 80.731995,588.819092 78.781044,581.197388 
	C78.231384,579.050049 76.729477,577.833557 75.296867,576.479370 
	C60.129299,562.141602 46.475147,546.425598 33.111187,530.432312 
	C31.313156,528.280457 31.612104,525.917542 31.049755,523.579224 
	C29.140627,515.640930 27.750843,507.006775 23.152393,500.584320 
	C19.369411,495.300812 17.878275,489.384247 14.872416,484.004669 
	C11.051333,477.166077 11.230522,469.172638 10.953710,461.584137 
	C10.371345,445.619232 10.103738,429.645020 12.496437,413.723358 
	C12.967576,410.588257 15.813004,409.710388 16.348356,407.117249 
	C17.121689,403.371399 17.849995,399.615326 18.692207,395.884949 
	C19.446640,392.543365 19.907166,389.291016 22.509970,386.414490 
	C25.155508,383.490784 24.042486,379.032806 24.366207,375.343689 
	C26.498016,351.049530 36.189785,329.866425 49.645966,309.945129 
	C55.299969,301.574646 62.468536,294.164612 66.185860,284.470093 
	C66.884048,282.649261 69.123680,281.371704 70.757729,279.966339 
	C75.935974,275.512787 81.278412,271.243408 86.336777,266.659393 
	C90.314697,263.054474 94.890961,259.920746 95.399521,253.593994 
	C95.634438,250.671539 98.336372,248.407593 100.434967,246.292786 
	C104.538689,242.157333 108.809662,238.184372 113.085121,234.223724 
	C118.147209,229.534378 123.893379,225.746826 126.475639,218.558990 
	C127.787979,214.906036 130.249954,209.347717 136.804932,212.579041 
	C138.110046,213.222412 139.449707,211.668274 139.560974,210.314896 
	C140.891464,194.132721 154.986465,187.902222 164.665451,178.353912 
	C169.733170,173.354614 175.422882,168.687180 181.571045,165.157806 
	C189.159424,160.801666 193.166824,153.214066 199.481995,147.838821 
	C206.687042,141.706131 216.002975,138.914536 223.329865,132.840134 
	C227.926300,129.029449 233.203873,126.042610 238.158890,122.661293 
	C240.614731,120.985413 242.883987,120.161674 246.252640,120.186661 
	C249.824127,120.213173 253.790466,117.827568 256.703888,114.848335 
	C262.664337,108.753281 269.014893,103.129295 276.437134,98.832657 
	C278.599030,97.581169 280.693726,96.162827 283.421021,97.432701 
	C284.539459,97.953476 285.734833,97.493896 286.751953,96.860794 
	C301.658295,87.582565 318.675842,83.570778 334.940216,77.742233 
	C351.072998,71.960838 367.003693,65.506996 383.716370,61.449375 
	C401.090576,57.231140 418.800781,55.584267 436.602875,54.684486 
	C438.754486,54.575737 440.902405,54.766827 443.028809,54.048363 
	C467.039154,45.935654 491.717682,45.444347 516.507324,48.463207 
	C530.417847,50.157223 544.515930,51.645351 557.517700,57.649101 
	C559.629700,58.624344 561.777039,59.607159 563.693970,60.903046 
	C567.462646,63.450775 570.756348,66.820946 575.964966,66.222153 
	C577.108704,66.090668 578.682373,66.870895 579.564209,67.735130 
	C586.859375,74.884903 598.398926,76.332474 603.539307,87.380714 
	C628.197388,59.256008 651.248413,31.588614 673.381836,1.312572 
	C674.913513,7.343979 673.610840,11.768337 672.294861,16.013546 
	C666.996155,33.105404 657.354553,47.931057 647.391602,62.536434 
	C638.939026,74.927734 630.192688,87.169266 620.228149,98.356056 
	C615.122375,104.088074 615.159607,109.455788 617.874451,115.534721 
	C621.602051,123.881157 623.591858,132.534180 623.549927,141.664444 
	C623.545349,142.660416 623.702393,143.685699 623.521362,144.647903 
	C621.523560,155.267792 621.181641,166.186829 617.553467,176.521179 
	C616.346985,179.957703 615.646240,183.588760 614.913635,187.171631 
	C612.016663,201.340546 604.893555,213.244873 596.611938,224.967926 
	C586.826050,238.820465 576.514160,251.952362 562.934570,262.206635 
	C550.706543,271.440247 538.287109,280.420959 525.928345,289.480804 
	C522.300415,292.140320 518.587158,294.683258 514.921021,297.290924 
	C512.491699,299.018860 510.246429,301.168152 506.803802,299.789581 
	C505.510376,299.271637 504.484070,300.234192 503.919769,301.253693 
	C501.316498,305.956848 497.323425,307.699768 492.056122,307.663910 
	C486.762482,307.627808 482.982269,311.112701 478.836182,313.920380 
	C452.223633,331.941956 425.364380,349.544525 393.736328,357.861938 
	C391.330719,358.494537 388.800659,359.427521 386.415375,359.220337 
	C378.918732,358.569122 372.862518,361.923431 366.777802,365.439362 
	C363.087402,367.571777 359.896667,370.735992 355.108643,370.545258 
	C353.587646,370.484650 352.593201,372.060730 351.557404,373.127838 
	C341.124146,383.876343 330.045868,394.063995 322.119293,406.998077 
	C321.617706,407.816559 320.812286,408.520660 320.006348,409.069702 
	C312.149963,414.421844 304.084839,419.389679 295.350739,423.250580 
	C288.030457,426.486481 280.376343,427.573700 272.486053,427.679108 
	C268.593842,427.731079 267.935486,425.110260 267.644531,422.065948 
	C266.692017,412.099030 270.666412,403.827301 276.665161,396.347351 
	C280.916321,391.046539 285.756592,386.177063 287.964355,379.182556 
	C276.328369,380.280792 265.200592,386.099762 252.023285,383.629578 
	C255.457275,377.934265 260.334900,376.902679 264.781921,375.960724 
	C274.376312,373.928558 284.145050,372.729034 293.761566,370.788025 
	C300.078491,369.513000 306.167236,366.927582 312.514069,366.023712 
	C321.275513,364.776001 329.182861,360.633423 337.891968,359.404175 
	C340.364258,359.055237 342.681519,358.253387 344.681396,356.518341 
	C379.426422,326.374817 414.167480,296.187103 446.062469,263.001709 
	C486.708923,220.710785 525.428040,176.629440 564.844421,133.197861 
	C566.394714,131.489609 567.798340,129.648285 569.598816,127.471855 
	C564.527466,123.337410 564.772522,117.439148 563.717896,111.970093 
	C562.860168,107.522041 561.363281,103.763420 555.592346,105.034607 
	C554.513367,105.272278 553.635986,104.773079 552.838562,104.141289 
	C543.347168,96.621254 532.199280,91.609726 522.637573,84.194649 
	C521.205200,83.083824 519.420349,82.370598 518.705933,80.497955 
	C518.324829,79.498924 517.671021,78.729904 516.543518,78.703354 
	C507.502167,78.490471 499.063507,73.574471 489.761841,75.284065 
	C488.830933,75.455154 487.598511,75.359940 486.837952,74.871460 
	C479.002350,69.839027 469.811920,72.593971 461.484436,70.354080 
	C452.603363,67.965309 443.966492,70.976807 435.342468,72.356064 
	C409.556915,76.480026 383.609131,79.703552 358.071777,85.251289 
	C336.854645,89.860512 316.731079,97.522392 297.028320,106.747322 
	C268.377655,120.161728 242.344406,137.816788 215.783508,154.665100 
	C206.869125,160.319733 199.504639,167.880173 191.369217,174.491714 
	C170.529312,191.427994 152.090225,210.937485 132.413986,229.118073 
	C124.965523,236.000366 120.280556,244.931213 115.727257,253.861832 
	C114.681549,255.912857 113.854500,257.862030 111.230209,258.795624 
	C107.748581,260.034271 107.071404,263.450500 107.291763,266.705872 
	C107.547432,270.482880 106.251709,273.397064 103.893616,276.239502 
	C98.851669,282.317047 94.371117,288.741577 94.358681,297.143829 
	C94.355164,299.525146 92.681320,300.597015 90.993324,301.723816 
	C82.183273,307.604858 76.689285,315.489197 75.993042,326.345551 
	C75.651909,331.664581 71.437157,334.722473 68.365288,338.308533 
	C66.270744,340.753662 65.161324,342.696655 67.058861,345.716187 
	C70.473801,351.150330 69.825035,356.176666 66.621262,361.888397 
	C60.434753,372.917725 61.241745,385.641693 59.098583,397.682770 
	C57.633804,405.912445 59.679176,415.344940 52.670170,422.207947 
	C51.122086,423.723724 51.468529,425.438721 52.235332,427.276794 
	C53.709488,430.810547 54.912815,434.459076 56.435638,437.970184 
	C57.459156,440.330048 58.581944,442.275787 56.101982,444.663971 
	C54.287460,446.411377 56.521141,448.128815 57.576767,449.326538 
	C60.389214,452.517487 60.489735,455.560638 58.680508,459.352356 
	C56.873962,463.138489 54.280861,466.914062 56.124790,471.644012 
	C56.704205,473.130280 56.915440,474.693115 58.821869,474.588379 
	C62.484928,474.387115 63.081558,476.998505 63.841919,479.624176 
	C66.388901,488.419159 69.024437,497.185608 73.183762,505.795044 
M502.630219,230.123810 
	C466.151642,269.435577 425.416718,304.341675 386.789886,341.362549 
	C389.101807,344.865936 391.473785,343.461731 393.440796,341.950592 
	C402.434509,335.041321 414.148224,333.567230 423.256683,326.911835 
	C423.725586,326.569214 424.532623,326.604553 425.181793,326.606567 
	C431.043121,326.624908 436.329346,324.587433 440.648407,320.931763 
	C450.304962,312.758453 460.285919,305.513794 473.301178,303.706207 
	C475.868408,303.349670 478.280853,301.881287 480.765961,300.929047 
	C481.713623,300.565948 482.931641,300.152679 482.937134,299.094421 
	C482.980194,290.813507 489.460968,287.878357 495.046967,284.050537 
	C528.417786,261.183472 553.882080,231.193268 573.351807,196.011841 
	C578.784180,186.195587 581.711731,175.363937 580.542847,163.938797 
	C580.007690,158.708038 580.437805,153.240005 578.256104,147.362823 
	C552.200806,174.775726 527.746094,202.271591 502.630219,230.123810 
z"/>
</svg>