<svg id="svg" version="1.1" xmlns="http://www.w3.org/2000/svg" xmlns:xlink="http://www.w3.org/1999/xlink" width="400" height="418.57142857142856" viewBox="0, 0, 400,418.57142857142856"><g id="svgg"><path id="path0" d="M93.200 9.831 C 82.220 11.065,72.246 14.547,62.608 20.510 C 57.987 23.368,49.102 31.422,46.180 35.400 C 45.533 36.280,44.914 37.090,44.802 37.200 C 41.317 40.646,35.978 52.922,33.930 62.200 C 33.155 65.712,33.143 349.906,33.918 353.200 C 40.143 379.663,61.097 398.945,87.800 402.783 C 89.340 403.005,91.895 403.369,93.477 403.593 C 101.988 404.797,115.624 403.022,124.800 399.517 C 129.535 397.708,134.459 395.356,136.462 393.947 C 137.046 393.536,137.630 393.200,137.761 393.200 C 138.700 393.200,147.398 386.160,150.200 383.132 C 154.303 378.698,158.400 373.367,158.400 372.462 C 158.400 372.244,158.549 372.007,158.731 371.933 C 159.719 371.536,163.755 361.827,165.106 356.600 C 165.333 355.720,165.749 354.190,166.030 353.200 C 166.426 351.803,166.574 341.391,166.688 306.700 L 166.835 262.000 143.218 262.000 L 119.600 262.000 119.600 297.667 C 119.600 336.003,119.562 336.801,117.536 341.046 C 113.568 349.360,100.499 354.349,93.105 350.373 C 92.723 350.168,92.215 350.000,91.975 350.000 C 88.575 350.000,82.160 342.352,80.840 336.723 C 80.118 333.644,80.235 78.857,80.959 76.135 C 84.804 61.696,103.441 56.974,114.105 67.738 C 119.595 73.280,119.600 73.317,119.600 109.777 L 119.600 139.200 143.221 139.200 L 166.841 139.200 166.688 101.500 C 166.570 72.644,166.415 63.378,166.027 62.000 C 165.748 61.010,165.335 59.480,165.111 58.600 C 159.165 35.312,138.732 15.991,115.000 11.217 C 113.680 10.951,111.790 10.549,110.800 10.323 C 108.984 9.908,95.795 9.540,93.200 9.831 M210.800 47.800 L 210.800 75.600 264.200 75.600 C 293.570 75.600,317.600 75.718,317.600 75.863 C 317.600 76.130,314.613 80.164,313.700 81.129 C 313.425 81.419,313.200 81.790,313.200 81.953 C 313.200 82.116,312.881 82.598,312.491 83.025 C 312.102 83.451,310.958 85.060,309.949 86.600 C 306.438 91.961,301.600 99.620,301.600 99.817 C 301.600 99.926,301.180 100.687,300.668 101.508 C 298.630 104.769,289.600 122.287,289.600 122.979 C 289.600 123.109,288.880 124.739,288.000 126.600 C 287.120 128.461,286.400 130.087,286.400 130.214 C 286.400 130.340,286.056 131.199,285.636 132.122 C 285.215 133.045,284.310 135.240,283.624 137.000 C 282.937 138.760,282.215 140.560,282.018 141.000 C 281.821 141.440,281.001 143.600,280.195 145.800 C 279.388 148.000,278.580 150.160,278.398 150.600 C 278.216 151.040,277.980 151.760,277.875 152.200 C 277.679 153.014,275.357 159.944,274.792 161.400 C 274.621 161.840,274.081 163.550,273.591 165.200 C 273.102 166.850,272.480 168.920,272.208 169.800 C 271.937 170.680,271.489 172.210,271.211 173.200 C 270.934 174.190,270.568 175.450,270.399 176.000 C 270.123 176.894,269.698 178.491,268.322 183.800 C 268.094 184.680,267.763 185.850,267.586 186.400 C 267.410 186.950,266.796 189.470,266.222 192.000 C 265.648 194.530,265.015 197.230,264.814 198.000 C 264.404 199.580,263.937 201.638,263.000 206.000 C 262.646 207.650,262.200 209.720,262.010 210.600 C 261.820 211.480,261.456 213.280,261.200 214.600 C 260.944 215.920,260.582 217.720,260.396 218.600 C 260.209 219.480,259.770 221.910,259.419 224.000 C 259.069 226.090,258.615 228.700,258.410 229.800 C 258.205 230.900,257.857 232.880,257.638 234.200 C 257.418 235.520,257.056 237.680,256.832 239.000 C 256.608 240.320,256.218 242.930,255.964 244.800 C 255.711 246.670,255.347 249.280,255.156 250.600 C 254.964 251.920,254.639 254.350,254.434 256.000 C 254.228 257.650,253.961 259.630,253.840 260.400 C 253.719 261.170,253.354 264.230,253.030 267.200 C 252.706 270.170,252.338 273.500,252.214 274.600 C 251.069 284.695,249.577 302.853,248.764 316.600 C 247.821 332.529,247.568 342.290,247.353 371.100 L 247.128 401.200 276.349 401.200 L 305.570 401.200 305.577 373.900 C 305.581 358.885,305.766 343.000,305.990 338.600 C 306.213 334.200,306.583 326.730,306.813 322.000 C 307.681 304.067,309.350 283.695,311.220 268.200 C 311.458 266.220,311.814 263.250,312.009 261.600 C 312.830 254.666,314.483 243.059,315.568 236.600 C 315.790 235.280,316.158 233.030,316.386 231.600 C 316.614 230.170,317.074 227.560,317.408 225.800 C 317.743 224.040,318.194 221.610,318.410 220.400 C 318.627 219.190,318.965 217.390,319.163 216.400 C 319.361 215.410,319.810 213.160,320.161 211.400 C 320.512 209.640,320.961 207.480,321.159 206.600 C 321.357 205.720,321.735 204.010,321.999 202.800 C 322.935 198.507,323.651 195.429,324.788 190.800 C 325.240 188.958,327.973 178.536,328.406 177.000 C 328.592 176.340,329.222 174.180,329.805 172.200 C 330.388 170.220,330.955 168.240,331.066 167.800 C 331.176 167.360,331.408 166.640,331.581 166.200 C 331.754 165.760,332.566 163.240,333.386 160.600 C 334.206 157.960,335.033 155.440,335.224 155.000 C 335.416 154.560,335.943 153.068,336.396 151.684 C 337.222 149.161,338.184 146.495,338.809 145.000 C 338.993 144.560,339.530 143.120,340.002 141.800 C 340.896 139.302,341.806 137.095,342.434 135.905 C 342.635 135.523,342.800 135.033,342.800 134.816 C 342.800 134.599,343.272 133.382,343.848 132.111 C 344.424 130.840,345.121 129.260,345.395 128.600 C 347.520 123.488,354.482 109.267,357.145 104.600 C 357.772 103.500,358.788 101.700,359.403 100.600 C 360.017 99.500,361.003 97.880,361.594 97.000 C 362.186 96.120,363.194 94.455,363.835 93.300 C 364.476 92.146,365.135 91.201,365.300 91.200 C 365.465 91.200,365.600 91.013,365.600 90.785 C 365.600 90.353,370.742 82.860,374.072 78.440 L 376.000 75.881 376.000 47.940 L 376.000 20.000 293.400 20.000 L 210.800 20.000 210.800 47.800 " stroke="none" fill="#040404" fill-rule="evenodd"></path><path id="path1" d="M0.000 209.200 L 0.000 418.400 200.000 418.400 L 400.000 418.400 400.000 209.200 L 400.000 0.000 200.000 0.000 L 0.000 0.000 0.000 209.200 M111.300 9.835 C 120.020 11.331,126.643 13.733,135.126 18.474 C 137.609 19.862,139.424 21.128,143.800 24.525 C 151.857 30.779,159.870 41.705,163.361 51.200 C 163.968 52.850,164.618 54.560,164.806 55.000 C 165.264 56.070,166.263 60.391,166.795 63.600 C 167.086 65.361,167.189 78.080,167.113 103.000 L 167.000 139.800 143.000 139.800 L 119.000 139.800 118.800 107.800 C 118.659 85.268,118.467 75.563,118.152 75.000 C 117.906 74.560,117.340 73.390,116.896 72.400 C 114.382 66.799,106.968 62.400,100.042 62.400 C 93.249 62.400,85.664 66.729,83.156 72.037 C 82.802 72.787,82.262 73.922,81.956 74.561 C 81.485 75.544,81.400 95.704,81.400 206.761 L 81.400 337.800 82.768 340.600 C 85.898 347.009,94.843 352.110,101.094 351.052 C 101.922 350.912,103.230 350.695,104.000 350.571 C 109.419 349.697,117.600 343.037,117.600 339.499 C 117.600 339.203,117.825 338.735,118.100 338.460 C 118.490 338.070,118.644 329.554,118.800 299.680 L 119.000 261.400 143.100 261.297 L 167.200 261.194 167.201 305.297 C 167.202 350.481,167.105 353.690,165.628 357.400 C 165.452 357.840,164.809 359.730,164.198 361.600 C 163.065 365.067,159.051 373.292,158.374 373.533 C 158.168 373.607,158.000 373.889,158.000 374.160 C 158.000 375.992,147.388 387.149,141.796 391.197 C 137.534 394.282,128.556 399.200,127.187 399.200 C 126.968 399.200,126.477 399.359,126.095 399.553 C 123.620 400.812,120.987 401.594,113.800 403.207 C 106.376 404.872,92.883 404.710,84.400 402.854 C 80.048 401.901,78.316 401.407,75.800 400.399 C 75.360 400.222,73.920 399.673,72.600 399.178 C 61.561 395.037,49.142 385.112,42.503 375.124 C 39.797 371.053,36.400 364.568,36.400 363.472 C 36.400 363.191,36.251 362.789,36.070 362.580 C 35.888 362.371,35.507 361.390,35.223 360.400 C 34.939 359.410,34.558 358.150,34.377 357.600 C 32.745 352.662,32.800 357.931,32.800 207.583 C 32.800 56.690,32.727 63.374,34.447 57.400 C 38.175 44.450,45.998 32.631,56.200 24.536 C 57.960 23.139,59.590 21.843,59.821 21.656 C 62.040 19.862,68.093 16.525,73.292 14.229 C 77.366 12.430,81.466 11.224,87.600 10.021 C 92.721 9.016,105.925 8.913,111.300 9.835 M376.557 19.833 C 376.691 20.181,376.799 32.916,376.798 48.133 L 376.797 75.800 375.116 78.000 C 372.302 81.683,365.200 92.010,365.200 92.417 C 365.200 92.628,365.020 92.800,364.800 92.800 C 364.580 92.800,364.400 92.989,364.400 93.219 C 364.400 93.450,363.742 94.665,362.939 95.919 C 361.657 97.919,360.612 99.708,359.036 102.600 C 358.796 103.040,358.510 103.490,358.400 103.600 C 358.111 103.889,356.670 106.627,353.439 113.021 C 349.978 119.872,347.601 124.939,344.958 131.100 C 344.651 131.815,344.130 133.012,343.800 133.760 C 343.470 134.509,343.200 135.231,343.200 135.365 C 343.200 135.499,342.857 136.372,342.437 137.304 C 342.018 138.237,341.012 140.800,340.202 143.000 C 339.392 145.200,338.577 147.360,338.390 147.800 C 338.204 148.240,337.579 150.040,337.000 151.800 C 336.422 153.560,335.780 155.313,335.574 155.695 C 335.368 156.077,335.200 156.664,335.200 157.000 C 335.200 157.336,335.036 157.923,334.836 158.305 C 334.636 158.687,333.984 160.620,333.387 162.600 C 332.790 164.580,332.169 166.560,332.006 167.000 C 331.530 168.291,330.933 170.339,329.793 174.600 C 329.204 176.800,328.574 178.960,328.391 179.400 C 328.209 179.840,327.974 180.650,327.869 181.200 C 327.764 181.750,327.015 184.720,326.205 187.800 C 324.574 193.998,324.385 194.781,323.406 199.400 C 323.033 201.160,322.555 203.320,322.344 204.200 C 321.798 206.473,320.902 210.803,319.821 216.400 C 317.881 226.441,317.539 228.348,316.202 236.600 C 314.770 245.437,313.606 253.734,312.359 264.000 C 308.056 299.429,305.979 337.417,306.007 380.200 C 306.014 391.640,306.016 401.225,306.010 401.500 C 305.995 402.233,247.398 402.233,246.924 401.500 C 246.746 401.225,246.544 392.990,246.476 383.200 C 246.207 344.626,248.204 303.984,252.009 270.600 C 252.210 268.840,252.542 265.870,252.747 264.000 C 253.112 260.675,253.845 254.991,254.217 252.600 C 254.319 251.940,254.576 250.230,254.786 248.800 C 254.997 247.370,255.348 245.030,255.567 243.600 C 255.786 242.170,256.260 239.020,256.621 236.600 C 256.982 234.180,257.447 231.300,257.655 230.200 C 257.862 229.100,258.185 227.300,258.373 226.200 C 258.560 225.100,258.905 223.210,259.139 222.000 C 259.373 220.790,259.859 218.270,260.221 216.400 C 260.911 212.828,261.348 210.718,261.983 207.900 C 262.193 206.965,262.544 205.300,262.762 204.200 C 263.168 202.156,264.180 197.709,264.810 195.200 C 265.003 194.430,265.343 192.990,265.565 192.000 C 265.960 190.237,267.725 183.375,268.393 181.000 C 268.579 180.340,269.020 178.720,269.373 177.400 C 270.349 173.755,271.245 170.690,271.594 169.800 C 271.767 169.360,272.132 168.190,272.405 167.200 C 273.056 164.842,274.821 159.218,275.231 158.200 C 275.408 157.760,276.202 155.420,276.995 153.000 C 277.788 150.580,278.596 148.240,278.790 147.800 C 278.984 147.360,279.530 145.920,280.002 144.600 C 280.474 143.280,281.096 141.660,281.385 141.000 C 281.673 140.340,282.316 138.720,282.813 137.400 C 283.981 134.301,284.474 133.106,285.752 130.289 C 286.328 129.018,286.800 127.888,286.800 127.778 C 286.800 126.688,298.536 103.435,300.448 100.738 C 300.861 100.154,301.200 99.591,301.200 99.487 C 301.200 99.221,303.616 95.251,304.700 93.735 C 305.195 93.043,305.600 92.382,305.600 92.266 C 305.600 91.970,310.645 84.545,313.935 80.000 L 316.686 76.200 263.443 76.000 L 210.200 75.800 210.096 48.000 C 210.040 32.710,210.079 19.975,210.184 19.700 C 210.510 18.847,376.230 18.979,376.557 19.833 " stroke="none" fill="#fbfbfb" fill-rule="evenodd"></path><path id="path2" d="M306.893 324.400 C 306.893 325.170,306.975 325.485,307.076 325.100 C 307.176 324.715,307.176 324.085,307.076 323.700 C 306.975 323.315,306.893 323.630,306.893 324.400 M306.493 330.400 C 306.493 331.170,306.575 331.485,306.676 331.100 C 306.776 330.715,306.776 330.085,306.676 329.700 C 306.575 329.315,306.493 329.630,306.493 330.400 M306.093 344.000 C 306.093 344.770,306.175 345.085,306.276 344.700 C 306.376 344.315,306.376 343.685,306.276 343.300 C 306.175 342.915,306.093 343.230,306.093 344.000 M246.924 355.400 C 246.926 356.720,247.001 357.212,247.090 356.493 C 247.179 355.774,247.177 354.694,247.086 354.093 C 246.995 353.492,246.922 354.080,246.924 355.400 M305.731 356.600 C 305.733 358.140,305.805 358.721,305.892 357.891 C 305.979 357.061,305.977 355.801,305.889 355.091 C 305.800 354.381,305.729 355.060,305.731 356.600 M305.742 397.800 C 305.741 399.780,305.808 400.640,305.892 399.712 C 305.976 398.784,305.977 397.164,305.895 396.112 C 305.812 395.060,305.743 395.820,305.742 397.800 " stroke="none" fill="#7c7c7c" fill-rule="evenodd"></path><path id="path3" d="M97.500 9.496 C 98.875 9.574,101.125 9.574,102.500 9.496 C 103.875 9.418,102.750 9.354,100.000 9.354 C 97.250 9.354,96.125 9.418,97.500 9.496 M92.305 9.883 C 92.802 9.979,93.522 9.975,93.905 9.875 C 94.287 9.775,93.880 9.696,93.000 9.701 C 92.120 9.705,91.807 9.787,92.305 9.883 M87.600 10.400 C 86.808 10.654,86.767 10.720,87.400 10.720 C 87.840 10.720,88.650 10.576,89.200 10.400 C 89.992 10.146,90.033 10.080,89.400 10.080 C 88.960 10.080,88.150 10.224,87.600 10.400 M110.800 10.400 C 111.350 10.576,112.160 10.720,112.600 10.720 C 113.233 10.720,113.192 10.654,112.400 10.400 C 111.850 10.224,111.040 10.080,110.600 10.080 C 109.967 10.080,110.008 10.146,110.800 10.400 M115.000 11.200 C 115.440 11.389,116.070 11.544,116.400 11.544 C 116.778 11.544,116.704 11.417,116.200 11.200 C 115.760 11.011,115.130 10.856,114.800 10.856 C 114.422 10.856,114.496 10.983,115.000 11.200 M210.584 20.099 C 210.479 20.375,210.441 32.930,210.499 48.000 L 210.606 75.400 210.703 47.700 L 210.800 20.000 293.405 20.000 L 376.011 20.000 375.905 48.180 C 375.847 63.679,375.936 76.224,376.103 76.057 C 376.269 75.891,376.359 63.165,376.303 47.777 L 376.200 19.800 293.488 19.699 C 227.528 19.619,210.737 19.700,210.584 20.099 M142.000 23.733 C 142.000 23.843,142.720 24.503,143.600 25.200 C 144.480 25.897,145.200 26.377,145.200 26.267 C 145.200 26.157,144.480 25.497,143.600 24.800 C 142.720 24.103,142.000 23.623,142.000 23.733 M51.588 29.100 L 49.000 31.800 51.700 29.212 C 54.208 26.807,54.583 26.400,54.288 26.400 C 54.227 26.400,53.012 27.615,51.588 29.100 M148.400 29.400 C 149.595 30.610,150.663 31.600,150.773 31.600 C 150.883 31.600,149.995 30.610,148.800 29.400 C 147.605 28.190,146.537 27.200,146.427 27.200 C 146.317 27.200,147.205 28.190,148.400 29.400 M153.200 34.800 C 153.897 35.680,154.557 36.400,154.667 36.400 C 154.777 36.400,154.297 35.680,153.600 34.800 C 152.903 33.920,152.243 33.200,152.133 33.200 C 152.023 33.200,152.503 33.920,153.200 34.800 M43.753 38.100 C 42.376 40.436,42.286 40.635,42.987 39.800 C 43.800 38.832,44.500 37.600,44.238 37.600 C 44.133 37.600,43.915 37.825,43.753 38.100 M33.850 61.250 C 33.517 62.917,33.840 63.240,34.200 61.600 C 34.352 60.909,34.393 60.259,34.291 60.158 C 34.189 60.056,33.991 60.547,33.850 61.250 M165.668 61.000 C 165.662 61.440,165.811 62.160,166.000 62.600 C 166.438 63.619,166.438 62.568,166.000 61.200 C 165.743 60.396,165.677 60.357,165.668 61.000 M95.000 62.400 C 93.981 62.838,95.032 62.838,96.400 62.400 C 97.204 62.143,97.243 62.077,96.600 62.068 C 96.160 62.062,95.440 62.211,95.000 62.400 M103.600 62.400 C 104.968 62.838,106.019 62.838,105.000 62.400 C 104.560 62.211,103.840 62.062,103.400 62.068 C 102.757 62.077,102.796 62.143,103.600 62.400 M33.293 65.600 C 33.293 66.370,33.375 66.685,33.476 66.300 C 33.576 65.915,33.576 65.285,33.476 64.900 C 33.375 64.515,33.293 64.830,33.293 65.600 M166.493 66.400 C 166.493 67.170,166.575 67.485,166.676 67.100 C 166.776 66.715,166.776 66.085,166.676 65.700 C 166.575 65.315,166.493 65.630,166.493 66.400 M85.785 67.700 L 83.800 69.800 85.900 67.815 C 87.851 65.971,88.183 65.600,87.885 65.600 C 87.822 65.600,86.877 66.545,85.785 67.700 M32.998 207.600 C 32.998 284.930,33.044 316.565,33.100 277.900 C 33.156 239.235,33.156 175.965,33.100 137.300 C 33.044 98.635,32.998 130.270,32.998 207.600 M166.898 103.900 L 166.800 139.200 143.203 139.200 L 119.605 139.200 119.499 109.200 L 119.392 79.200 119.396 109.300 L 119.400 139.400 143.111 139.503 C 161.868 139.585,166.863 139.501,167.015 139.103 C 167.120 138.826,167.159 122.850,167.101 103.600 L 166.996 68.600 166.898 103.900 M80.598 206.600 C 80.598 277.660,80.644 306.670,80.700 271.068 C 80.756 235.465,80.756 177.325,80.700 141.868 C 80.644 106.410,80.598 135.540,80.598 206.600 M312.614 82.235 C 312.241 82.804,312.005 83.338,312.089 83.422 C 312.173 83.507,312.558 83.041,312.944 82.388 C 313.806 80.928,313.548 80.809,312.614 82.235 M309.353 86.900 C 307.976 89.236,307.886 89.435,308.587 88.600 C 309.400 87.632,310.100 86.400,309.838 86.400 C 309.733 86.400,309.515 86.625,309.353 86.900 M305.753 92.500 C 304.376 94.836,304.286 95.035,304.987 94.200 C 305.800 93.232,306.500 92.000,306.238 92.000 C 306.133 92.000,305.915 92.225,305.753 92.500 M289.200 122.884 C 289.200 123.004,288.928 123.754,288.595 124.551 C 288.262 125.348,288.079 126.000,288.189 126.000 C 288.506 126.000,289.633 123.100,289.405 122.872 C 289.292 122.759,289.200 122.765,289.200 122.884 M285.667 131.180 C 285.433 131.851,285.327 132.400,285.431 132.400 C 285.701 132.400,286.456 130.322,286.257 130.124 C 286.167 130.033,285.901 130.508,285.667 131.180 M282.067 139.980 C 281.833 140.651,281.727 141.200,281.831 141.200 C 282.101 141.200,282.856 139.122,282.657 138.924 C 282.567 138.833,282.301 139.308,282.067 139.980 M340.444 140.444 C 340.198 141.151,340.066 141.800,340.152 141.885 C 340.238 141.971,340.509 141.462,340.756 140.756 C 341.002 140.049,341.134 139.400,341.048 139.315 C 340.962 139.229,340.691 139.738,340.444 140.444 M327.849 178.615 C 327.712 178.973,327.615 179.566,327.634 179.933 C 327.653 180.300,327.827 180.069,328.021 179.420 C 328.398 178.158,328.265 177.533,327.849 178.615 M268.446 182.067 C 268.421 182.434,268.296 183.064,268.170 183.467 C 267.952 184.162,267.963 184.163,268.397 183.487 C 268.648 183.096,268.773 182.466,268.673 182.087 C 268.511 181.468,268.488 181.466,268.446 182.067 M324.249 192.615 C 324.112 192.973,324.015 193.566,324.034 193.933 C 324.053 194.300,324.227 194.069,324.421 193.420 C 324.798 192.158,324.665 191.533,324.249 192.615 M264.846 196.467 C 264.821 196.834,264.696 197.464,264.570 197.867 C 264.352 198.562,264.363 198.563,264.797 197.887 C 265.048 197.496,265.173 196.866,265.073 196.487 C 264.911 195.868,264.888 195.866,264.846 196.467 M323.029 197.829 C 322.881 198.415,322.838 198.972,322.932 199.066 C 323.027 199.160,323.224 198.758,323.371 198.171 C 323.519 197.585,323.562 197.028,323.468 196.934 C 323.373 196.840,323.176 197.242,323.029 197.829 M263.829 200.629 C 263.681 201.215,263.638 201.772,263.732 201.866 C 263.827 201.960,264.024 201.558,264.171 200.971 C 264.319 200.385,264.362 199.828,264.268 199.734 C 264.173 199.640,263.976 200.042,263.829 200.629 M322.229 201.429 C 322.081 202.015,322.038 202.572,322.132 202.666 C 322.227 202.760,322.424 202.358,322.571 201.771 C 322.719 201.185,322.762 200.628,322.668 200.534 C 322.573 200.440,322.376 200.842,322.229 201.429 M263.000 204.400 C 262.848 205.091,262.807 205.741,262.909 205.842 C 263.011 205.944,263.209 205.453,263.350 204.750 C 263.683 203.083,263.360 202.760,263.000 204.400 M261.050 213.650 C 260.909 214.353,260.869 215.002,260.959 215.092 C 261.050 215.183,261.248 214.691,261.400 214.000 C 261.552 213.309,261.593 212.659,261.491 212.558 C 261.389 212.456,261.191 212.947,261.050 213.650 M319.400 214.800 C 319.248 215.491,319.207 216.141,319.309 216.242 C 319.411 216.344,319.609 215.853,319.750 215.150 C 319.891 214.447,319.931 213.798,319.841 213.708 C 319.750 213.617,319.552 214.109,319.400 214.800 M318.600 218.800 C 318.448 219.491,318.407 220.141,318.509 220.242 C 318.611 220.344,318.809 219.853,318.950 219.150 C 319.091 218.447,319.131 217.798,319.041 217.708 C 318.950 217.617,318.752 218.109,318.600 218.800 M258.449 227.800 C 258.416 228.240,258.296 229.050,258.183 229.600 L 257.977 230.600 258.406 229.619 C 258.642 229.079,258.761 228.269,258.672 227.819 C 258.513 227.021,258.507 227.021,258.449 227.800 M255.701 245.400 C 255.705 246.280,255.787 246.593,255.883 246.095 C 255.979 245.598,255.975 244.878,255.875 244.495 C 255.775 244.113,255.696 244.520,255.701 245.400 M314.093 246.000 C 314.093 246.770,314.175 247.085,314.276 246.700 C 314.376 246.315,314.376 245.685,314.276 245.300 C 314.175 244.915,314.093 245.230,314.093 246.000 M254.854 250.800 C 254.819 251.350,254.696 252.250,254.583 252.800 L 254.377 253.800 254.807 252.815 C 255.043 252.274,255.165 251.374,255.078 250.815 L 254.920 249.800 254.854 250.800 M253.855 257.855 C 253.713 258.886,253.674 259.808,253.769 259.902 C 253.863 259.996,254.065 259.239,254.218 258.218 C 254.371 257.198,254.410 256.276,254.304 256.171 C 254.198 256.065,253.996 256.823,253.855 257.855 M312.269 258.756 C 312.121 259.495,312.020 260.483,312.044 260.950 C 312.068 261.418,312.247 260.990,312.442 260.000 C 312.637 259.010,312.738 258.023,312.667 257.806 C 312.596 257.590,312.417 258.017,312.269 258.756 M119.385 262.097 C 119.280 262.374,119.241 278.800,119.299 298.600 L 119.404 334.600 119.502 298.300 L 119.600 262.000 143.198 262.000 L 166.796 262.000 166.901 304.100 L 167.005 346.200 167.003 304.000 L 167.000 261.800 143.289 261.697 C 124.532 261.615,119.537 261.699,119.385 262.097 M252.893 266.000 C 252.893 266.770,252.975 267.085,253.076 266.700 C 253.176 266.315,253.176 265.685,253.076 265.300 C 252.975 264.915,252.893 265.230,252.893 266.000 M311.301 267.400 C 311.305 268.280,311.387 268.593,311.483 268.095 C 311.579 267.598,311.575 266.878,311.475 266.495 C 311.375 266.113,311.296 266.520,311.301 267.400 M252.114 273.800 C 252.117 274.900,252.195 275.303,252.287 274.695 C 252.379 274.086,252.377 273.186,252.282 272.695 C 252.187 272.203,252.111 272.700,252.114 273.800 M310.509 274.800 C 310.509 275.790,310.587 276.195,310.682 275.700 C 310.778 275.205,310.778 274.395,310.682 273.900 C 310.587 273.405,310.509 273.810,310.509 274.800 M310.093 278.400 C 310.093 279.170,310.175 279.485,310.276 279.100 C 310.376 278.715,310.376 278.085,310.276 277.700 C 310.175 277.315,310.093 277.630,310.093 278.400 M251.309 281.600 C 251.309 282.590,251.387 282.995,251.482 282.500 C 251.578 282.005,251.578 281.195,251.482 280.700 C 251.387 280.205,251.309 280.610,251.309 281.600 M309.693 283.200 C 309.693 283.970,309.775 284.285,309.876 283.900 C 309.976 283.515,309.976 282.885,309.876 282.500 C 309.775 282.115,309.693 282.430,309.693 283.200 M309.301 286.200 C 309.305 287.080,309.387 287.393,309.483 286.895 C 309.579 286.398,309.575 285.678,309.475 285.295 C 309.375 284.913,309.296 285.320,309.301 286.200 M250.509 290.400 C 250.509 291.390,250.587 291.795,250.682 291.300 C 250.778 290.805,250.778 289.995,250.682 289.500 C 250.587 289.005,250.509 289.410,250.509 290.400 M308.893 292.000 C 308.893 292.770,308.975 293.085,309.076 292.700 C 309.176 292.315,309.176 291.685,309.076 291.300 C 308.975 290.915,308.893 291.230,308.893 292.000 M250.101 293.800 C 250.105 294.680,250.187 294.993,250.283 294.495 C 250.379 293.998,250.375 293.278,250.275 292.895 C 250.175 292.513,250.096 292.920,250.101 293.800 M308.524 295.800 C 308.526 297.120,308.601 297.612,308.690 296.893 C 308.779 296.174,308.777 295.094,308.686 294.493 C 308.595 293.892,308.522 294.480,308.524 295.800 M249.701 299.800 C 249.705 300.680,249.787 300.993,249.883 300.495 C 249.979 299.998,249.975 299.278,249.875 298.895 C 249.775 298.513,249.696 298.920,249.701 299.800 M308.101 301.800 C 308.105 302.680,308.187 302.993,308.283 302.495 C 308.379 301.998,308.375 301.278,308.275 300.895 C 308.175 300.513,308.096 300.920,308.101 301.800 M249.328 304.800 C 249.328 306.230,249.401 306.815,249.489 306.100 C 249.578 305.385,249.578 304.215,249.489 303.500 C 249.401 302.785,249.328 303.370,249.328 304.800 M307.731 306.600 C 307.733 308.140,307.805 308.721,307.892 307.891 C 307.979 307.061,307.977 305.801,307.889 305.091 C 307.800 304.381,307.729 305.060,307.731 306.600 M248.909 310.400 C 248.909 311.390,248.987 311.795,249.082 311.300 C 249.178 310.805,249.178 309.995,249.082 309.500 C 248.987 309.005,248.909 309.410,248.909 310.400 M307.309 312.800 C 307.309 313.790,307.387 314.195,307.482 313.700 C 307.578 313.205,307.578 312.395,307.482 311.900 C 307.387 311.405,307.309 311.810,307.309 312.800 M248.540 318.000 C 248.540 319.870,248.609 320.635,248.693 319.700 C 248.777 318.765,248.777 317.235,248.693 316.300 C 248.609 315.365,248.540 316.130,248.540 318.000 M306.937 320.200 C 306.939 321.960,307.009 322.630,307.093 321.689 C 307.178 320.749,307.177 319.309,307.091 318.489 C 307.005 317.670,306.936 318.440,306.937 320.200 M248.114 323.800 C 248.117 324.900,248.195 325.303,248.287 324.695 C 248.379 324.086,248.377 323.186,248.282 322.695 C 248.187 322.203,248.111 322.700,248.114 323.800 M306.524 327.000 C 306.526 328.320,306.601 328.812,306.690 328.093 C 306.779 327.374,306.777 326.294,306.686 325.693 C 306.595 325.092,306.522 325.680,306.524 327.000 M247.426 338.730 C 247.262 343.202,247.214 346.947,247.319 347.053 C 247.574 347.307,248.147 331.839,247.910 331.142 C 247.808 330.844,247.590 334.259,247.426 338.730 M305.899 341.000 C 305.736 343.860,305.630 348.000,305.663 350.200 C 305.704 352.981,305.826 351.762,306.063 346.200 C 306.250 341.800,306.357 337.660,306.299 337.000 C 306.242 336.340,306.062 338.140,305.899 341.000 M84.800 344.925 C 84.800 344.994,85.385 345.579,86.100 346.225 L 87.400 347.400 86.225 346.100 C 85.130 344.888,84.800 344.616,84.800 344.925 M111.414 347.646 C 109.313 349.226,109.116 349.487,110.727 348.562 C 111.862 347.910,113.647 346.345,113.162 346.427 C 113.073 346.442,112.286 346.991,111.414 347.646 M166.493 348.800 C 166.493 349.570,166.575 349.885,166.676 349.500 C 166.776 349.115,166.776 348.485,166.676 348.100 C 166.575 347.715,166.493 348.030,166.493 348.800 M33.293 349.600 C 33.293 350.370,33.375 350.685,33.476 350.300 C 33.576 349.915,33.576 349.285,33.476 348.900 C 33.375 348.515,33.293 348.830,33.293 349.600 M98.300 351.493 C 99.235 351.577,100.765 351.577,101.700 351.493 C 102.635 351.409,101.870 351.340,100.000 351.340 C 98.130 351.340,97.365 351.409,98.300 351.493 M165.800 353.200 C 165.648 353.891,165.607 354.541,165.709 354.642 C 165.811 354.744,166.009 354.253,166.150 353.550 C 166.483 351.883,166.160 351.560,165.800 353.200 M246.986 378.600 C 246.986 390.260,247.037 394.972,247.100 389.072 C 247.162 383.171,247.162 373.631,247.100 367.872 C 247.037 362.112,246.986 366.940,246.986 378.600 M42.764 375.133 C 42.980 375.536,43.471 376.121,43.855 376.433 C 44.287 376.784,44.190 376.504,43.601 375.700 C 42.551 374.265,42.157 373.998,42.764 375.133 M48.783 382.500 C 49.764 383.545,50.619 384.400,50.683 384.400 C 50.984 384.400,50.666 384.041,48.900 382.383 L 47.000 380.600 48.783 382.500 M149.188 384.300 L 146.600 387.000 149.300 384.412 C 150.785 382.988,152.000 381.773,152.000 381.712 C 152.000 381.417,151.593 381.792,149.188 384.300 M53.600 386.925 C 53.600 386.994,54.185 387.579,54.900 388.225 L 56.200 389.400 55.025 388.100 C 53.930 386.888,53.600 386.616,53.600 386.925 M72.400 398.733 C 72.730 398.936,73.450 399.224,74.000 399.371 C 74.695 399.557,74.817 399.525,74.400 399.267 C 74.070 399.064,73.350 398.776,72.800 398.629 C 72.105 398.443,71.983 398.475,72.400 398.733 M261.700 401.500 C 269.785 401.560,283.015 401.560,291.100 401.500 C 299.185 401.439,292.570 401.390,276.400 401.390 C 260.230 401.390,253.615 401.439,261.700 401.500 M89.633 403.351 C 89.725 403.434,91.060 403.602,92.600 403.726 C 94.752 403.898,95.030 403.869,93.800 403.598 C 92.183 403.242,89.326 403.073,89.633 403.351 M108.305 403.483 C 108.802 403.579,109.522 403.575,109.905 403.475 C 110.287 403.375,109.880 403.296,109.000 403.301 C 108.120 403.305,107.807 403.387,108.305 403.483 M105.300 403.876 C 105.685 403.976,106.315 403.976,106.700 403.876 C 107.085 403.775,106.770 403.693,106.000 403.693 C 105.230 403.693,104.915 403.775,105.300 403.876 " stroke="none" fill="#747474" fill-rule="evenodd"></path><path id="path4" d="M90.000 9.600 C 88.001 10.021,90.052 10.038,92.400 9.620 C 94.024 9.332,94.063 9.300,92.800 9.303 C 92.030 9.304,90.770 9.438,90.000 9.600 M106.033 9.350 C 106.125 9.432,107.280 9.600,108.600 9.723 C 110.178 9.870,110.589 9.835,109.800 9.620 C 108.566 9.285,105.736 9.082,106.033 9.350 M80.800 11.618 C 80.362 11.915,80.524 11.952,81.400 11.756 C 82.871 11.427,83.190 11.198,82.167 11.206 C 81.745 11.209,81.130 11.395,80.800 11.618 M117.233 11.344 C 117.325 11.423,117.940 11.608,118.600 11.756 C 119.476 11.952,119.638 11.915,119.200 11.618 C 118.660 11.253,116.832 10.998,117.233 11.344 M122.800 12.917 C 123.107 13.249,127.200 14.814,127.200 14.600 C 127.200 14.394,125.113 13.475,123.565 12.998 C 123.034 12.834,122.690 12.798,122.800 12.917 M135.200 18.820 C 136.587 19.761,137.378 20.035,136.400 19.236 C 135.850 18.786,135.220 18.417,135.000 18.415 C 134.780 18.413,134.870 18.596,135.200 18.820 M61.600 20.400 C 60.610 21.058,59.939 21.597,60.109 21.598 C 60.457 21.600,63.600 19.574,63.600 19.347 C 63.600 19.092,63.442 19.175,61.600 20.400 M210.184 19.700 C 210.079 19.975,210.040 32.710,210.096 48.000 L 210.200 75.800 263.546 75.901 L 316.893 76.003 315.817 77.501 L 314.742 79.000 315.955 77.635 C 316.621 76.884,317.074 76.119,316.960 75.935 C 316.846 75.751,292.822 75.600,263.574 75.600 L 210.395 75.600 210.497 47.700 L 210.600 19.800 293.600 19.599 L 376.600 19.397 293.487 19.299 C 227.293 19.220,210.336 19.302,210.184 19.700 M137.600 20.111 C 137.600 20.187,138.185 20.678,138.900 21.201 C 139.704 21.790,139.984 21.887,139.633 21.455 C 139.100 20.799,137.600 19.807,137.600 20.111 M376.400 48.080 C 376.290 63.634,376.336 76.224,376.503 76.057 C 376.669 75.891,376.759 63.165,376.703 47.777 L 376.600 19.800 376.400 48.080 M58.122 23.029 L 57.000 24.058 58.300 23.154 C 59.015 22.657,59.600 22.193,59.600 22.125 C 59.600 21.809,59.158 22.080,58.122 23.029 M146.274 26.920 C 147.426 27.975,149.570 30.135,151.038 31.720 C 152.506 33.304,153.157 33.880,152.484 33.000 C 151.239 31.372,146.463 26.646,144.989 25.584 C 144.543 25.263,145.121 25.864,146.274 26.920 M50.992 29.300 L 47.400 33.000 51.100 29.408 C 54.536 26.072,54.982 25.600,54.692 25.600 C 54.632 25.600,52.967 27.265,50.992 29.300 M41.353 41.300 C 39.976 43.636,39.886 43.835,40.587 43.000 C 41.400 42.032,42.100 40.800,41.838 40.800 C 41.733 40.800,41.515 41.025,41.353 41.300 M36.779 50.255 C 36.558 50.836,36.452 51.385,36.543 51.476 C 36.633 51.567,36.899 51.092,37.133 50.420 C 37.653 48.928,37.339 48.782,36.779 50.255 M34.249 57.815 C 34.112 58.173,34.015 58.766,34.034 59.133 C 34.053 59.500,34.227 59.269,34.421 58.620 C 34.798 57.358,34.665 56.733,34.249 57.815 M165.268 57.600 C 165.288 58.639,165.918 60.346,165.932 59.400 C 165.938 58.960,165.789 58.240,165.600 57.800 C 165.389 57.310,165.261 57.232,165.268 57.600 M33.018 63.818 C 32.865 64.839,32.822 65.755,32.922 65.855 C 33.022 65.955,33.229 65.202,33.382 64.182 C 33.535 63.161,33.578 62.245,33.478 62.145 C 33.378 62.045,33.171 62.798,33.018 63.818 M99.305 62.287 C 99.914 62.379,100.814 62.377,101.305 62.282 C 101.797 62.187,101.300 62.111,100.200 62.114 C 99.100 62.117,98.697 62.195,99.305 62.287 M109.200 64.536 C 109.200 64.635,110.100 65.294,111.199 65.999 C 112.298 66.705,113.648 67.817,114.199 68.472 C 114.750 69.126,115.200 69.483,115.200 69.265 C 115.200 68.767,112.104 66.041,110.445 65.077 C 109.760 64.680,109.200 64.436,109.200 64.536 M166.893 66.000 C 166.893 66.770,166.975 67.085,167.076 66.700 C 167.176 66.315,167.176 65.685,167.076 65.300 C 166.975 64.915,166.893 65.230,166.893 66.000 M85.781 68.100 L 84.200 69.800 85.900 68.219 C 86.835 67.349,87.600 66.584,87.600 66.519 C 87.600 66.216,87.252 66.519,85.781 68.100 M81.050 76.850 C 80.717 78.515,80.806 335.538,81.140 336.724 C 81.283 337.232,81.400 278.687,81.400 206.624 C 81.400 134.561,81.377 75.600,81.350 75.600 C 81.323 75.600,81.188 76.163,81.050 76.850 M118.705 107.733 C 118.763 124.930,118.893 139.225,118.993 139.500 C 119.198 140.063,166.592 140.261,166.938 139.700 C 167.040 139.535,156.386 139.400,143.262 139.400 L 119.400 139.400 119.200 108.133 C 119.090 90.936,118.910 76.776,118.800 76.666 C 118.690 76.556,118.647 90.536,118.705 107.733 M375.144 77.500 C 373.875 79.032,373.419 79.742,373.881 79.465 C 374.393 79.158,376.169 76.800,375.889 76.800 C 375.798 76.800,375.463 77.115,375.144 77.500 M370.319 84.100 C 369.157 85.648,368.696 86.400,368.909 86.400 C 368.994 86.400,369.646 85.590,370.357 84.600 C 371.832 82.546,371.800 82.127,370.319 84.100 M311.123 83.900 C 310.418 84.721,309.890 85.600,310.101 85.600 C 310.183 85.600,310.649 85.060,311.137 84.400 C 312.101 83.096,312.092 82.772,311.123 83.900 M304.102 94.500 C 303.536 95.215,302.740 96.800,302.946 96.800 C 303.042 96.800,303.493 96.170,303.947 95.400 C 304.773 94.001,304.849 93.557,304.102 94.500 M362.953 95.300 C 361.576 97.636,361.486 97.835,362.187 97.000 C 363.000 96.032,363.700 94.800,363.438 94.800 C 363.333 94.800,363.115 95.025,362.953 95.300 M299.853 101.700 L 299.133 103.000 299.958 102.000 C 300.689 101.113,301.014 100.400,300.686 100.400 C 300.624 100.400,300.249 100.985,299.853 101.700 M297.200 106.400 C 296.751 107.280,296.474 108.000,296.584 108.000 C 296.694 108.000,297.151 107.280,297.600 106.400 C 298.049 105.520,298.326 104.800,298.216 104.800 C 298.106 104.800,297.649 105.520,297.200 106.400 M293.580 113.239 C 293.120 114.140,292.813 114.946,292.897 115.030 C 292.981 115.114,293.441 114.376,293.919 113.391 C 295.009 111.147,294.715 111.015,293.580 113.239 M283.979 134.255 C 283.758 134.836,283.652 135.385,283.743 135.476 C 283.833 135.567,284.099 135.092,284.333 134.420 C 284.853 132.928,284.539 132.782,283.979 134.255 M280.444 143.244 C 280.198 143.951,280.066 144.600,280.152 144.685 C 280.238 144.771,280.509 144.262,280.756 143.556 C 281.002 142.849,281.134 142.200,281.048 142.115 C 280.962 142.029,280.691 142.538,280.444 143.244 M333.800 160.000 C 333.650 160.473,333.617 160.950,333.727 161.060 C 333.837 161.170,334.050 160.873,334.200 160.400 C 334.350 159.927,334.383 159.450,334.273 159.340 C 334.163 159.230,333.950 159.527,333.800 160.000 M330.249 171.415 C 330.112 171.773,330.015 172.366,330.034 172.733 C 330.053 173.100,330.227 172.869,330.421 172.220 C 330.798 170.958,330.665 170.333,330.249 171.415 M270.440 173.440 C 270.210 174.273,270.094 175.027,270.182 175.115 C 270.270 175.203,270.530 174.593,270.760 173.760 C 270.990 172.927,271.106 172.173,271.018 172.085 C 270.930 171.997,270.670 172.607,270.440 173.440 M329.449 174.215 C 329.312 174.573,329.215 175.166,329.234 175.533 C 329.253 175.900,329.427 175.669,329.621 175.020 C 329.998 173.758,329.865 173.133,329.449 174.215 M328.446 177.867 C 328.421 178.124,328.284 178.664,328.141 179.067 C 327.940 179.636,327.994 179.697,328.379 179.342 C 328.652 179.091,328.789 178.551,328.684 178.142 C 328.579 177.734,328.472 177.610,328.446 177.867 M267.849 182.615 C 267.712 182.973,267.615 183.566,267.634 183.933 C 267.653 184.300,267.827 184.069,268.021 183.420 C 268.398 182.158,268.265 181.533,267.849 182.615 M326.649 184.615 C 326.512 184.973,326.415 185.566,326.434 185.933 C 326.453 186.300,326.627 186.069,326.821 185.420 C 327.198 184.158,327.065 183.533,326.649 184.615 M266.650 187.250 C 266.317 188.917,266.640 189.240,267.000 187.600 C 267.152 186.909,267.193 186.259,267.091 186.158 C 266.989 186.056,266.791 186.547,266.650 187.250 M265.829 190.629 C 265.681 191.215,265.638 191.772,265.732 191.866 C 265.827 191.960,266.024 191.558,266.171 190.971 C 266.319 190.385,266.362 189.828,266.268 189.734 C 266.173 189.640,265.976 190.042,265.829 190.629 M265.049 193.815 C 264.912 194.173,264.815 194.766,264.834 195.133 C 264.853 195.500,265.027 195.269,265.221 194.620 C 265.598 193.358,265.465 192.733,265.049 193.815 M323.829 195.829 C 323.681 196.415,323.638 196.972,323.732 197.066 C 323.827 197.160,324.024 196.758,324.171 196.171 C 324.319 195.585,324.362 195.028,324.268 194.934 C 324.173 194.840,323.976 195.242,323.829 195.829 M264.249 197.015 C 264.112 197.373,264.018 198.056,264.041 198.533 C 264.067 199.081,264.203 198.886,264.410 198.003 C 264.760 196.516,264.665 195.933,264.249 197.015 M322.831 200.431 C 322.585 201.578,322.460 202.593,322.553 202.686 C 322.646 202.779,322.923 201.917,323.169 200.769 C 323.415 199.622,323.540 198.607,323.447 198.514 C 323.354 198.421,323.077 199.283,322.831 200.431 M263.050 202.450 C 262.717 204.117,263.040 204.440,263.400 202.800 C 263.552 202.109,263.593 201.459,263.491 201.358 C 263.389 201.256,263.191 201.747,263.050 202.450 M322.046 204.067 C 322.021 204.434,321.896 205.064,321.770 205.467 C 321.552 206.162,321.563 206.163,321.997 205.487 C 322.248 205.096,322.373 204.466,322.273 204.087 C 322.111 203.468,322.088 203.466,322.046 204.067 M321.050 208.450 C 320.909 209.153,320.869 209.802,320.959 209.892 C 321.050 209.983,321.248 209.491,321.400 208.800 C 321.552 208.109,321.593 207.459,321.491 207.358 C 321.389 207.256,321.191 207.747,321.050 208.450 M261.449 209.815 C 261.312 210.173,261.218 210.856,261.241 211.333 C 261.267 211.881,261.403 211.686,261.610 210.803 C 261.960 209.316,261.865 208.733,261.449 209.815 M320.250 212.450 C 320.109 213.153,320.069 213.802,320.159 213.892 C 320.250 213.983,320.448 213.491,320.600 212.800 C 320.752 212.109,320.793 211.459,320.691 211.358 C 320.589 211.256,320.391 211.747,320.250 212.450 M259.422 220.222 C 259.272 221.025,259.228 221.762,259.326 221.860 C 259.424 221.957,259.627 221.381,259.778 220.578 C 259.928 219.775,259.972 219.038,259.874 218.940 C 259.776 218.843,259.573 219.419,259.422 220.222 M318.449 221.800 C 318.416 222.240,318.296 223.050,318.183 223.600 L 317.977 224.600 318.406 223.619 C 318.642 223.079,318.761 222.269,318.672 221.819 C 318.513 221.021,318.507 221.021,318.449 221.800 M258.656 224.084 C 258.521 224.588,258.427 225.360,258.446 225.800 C 258.465 226.240,258.645 225.898,258.846 225.040 C 259.236 223.378,259.070 222.540,258.656 224.084 M317.422 227.022 C 317.272 227.825,317.238 228.572,317.348 228.682 C 317.458 228.792,317.672 228.225,317.822 227.422 C 317.973 226.619,318.006 225.873,317.896 225.763 C 317.786 225.653,317.573 226.219,317.422 227.022 M257.849 228.615 C 257.712 228.973,257.621 229.746,257.646 230.333 C 257.680 231.132,257.770 230.998,258.004 229.800 C 258.335 228.100,258.262 227.540,257.849 228.615 M316.600 232.000 C 316.446 232.910,316.404 233.738,316.507 233.840 C 316.610 233.943,316.813 233.277,316.960 232.360 C 317.107 231.443,317.148 230.615,317.053 230.520 C 316.958 230.424,316.754 231.090,316.600 232.000 M256.860 234.450 C 256.827 235.028,256.711 236.107,256.601 236.850 L 256.403 238.200 256.824 236.857 C 257.055 236.119,257.172 235.039,257.082 234.457 L 256.920 233.400 256.860 234.450 M315.455 239.055 C 315.313 240.086,315.274 241.008,315.369 241.102 C 315.463 241.196,315.665 240.439,315.818 239.418 C 315.971 238.398,316.010 237.476,315.904 237.371 C 315.798 237.265,315.596 238.023,315.455 239.055 M255.822 241.422 C 255.672 242.225,255.628 242.962,255.726 243.060 C 255.824 243.157,256.027 242.581,256.178 241.778 C 256.328 240.975,256.372 240.238,256.274 240.140 C 256.176 240.043,255.973 240.619,255.822 241.422 M314.655 244.255 C 314.513 245.286,314.474 246.208,314.569 246.302 C 314.663 246.396,314.865 245.639,315.018 244.618 C 315.171 243.598,315.210 242.676,315.104 242.571 C 314.998 242.465,314.796 243.223,314.655 244.255 M255.000 246.800 C 254.846 247.710,254.804 248.538,254.907 248.640 C 255.010 248.743,255.213 248.077,255.360 247.160 C 255.507 246.243,255.548 245.415,255.453 245.320 C 255.358 245.224,255.154 245.890,255.000 246.800 M313.800 250.000 C 313.646 250.910,313.611 251.744,313.721 251.854 C 313.831 251.964,314.046 251.310,314.200 250.400 C 314.354 249.490,314.389 248.656,314.279 248.546 C 314.169 248.436,313.954 249.090,313.800 250.000 M254.256 251.684 C 254.121 252.188,254.031 253.230,254.055 254.000 C 254.089 255.069,254.175 254.880,254.418 253.202 C 254.753 250.892,254.672 250.133,254.256 251.684 M312.909 257.600 C 312.909 258.590,312.987 258.995,313.082 258.500 C 313.178 258.005,313.178 257.195,313.082 256.700 C 312.987 256.205,312.909 256.610,312.909 257.600 M253.029 261.229 C 252.876 262.579,252.833 263.766,252.933 263.867 C 253.034 263.967,253.244 262.947,253.400 261.600 C 253.556 260.253,253.599 259.066,253.495 258.962 C 253.391 258.858,253.181 259.878,253.029 261.229 M118.993 261.700 C 118.893 261.975,118.763 279.111,118.705 299.780 C 118.647 320.449,118.714 336.829,118.853 336.180 C 118.992 335.531,119.127 318.482,119.153 298.294 L 119.200 261.588 143.200 261.694 C 156.400 261.752,167.200 261.665,167.200 261.500 C 167.200 260.938,119.198 261.138,118.993 261.700 M311.866 265.168 C 311.719 266.578,311.674 267.807,311.766 267.900 C 312.014 268.147,312.515 263.746,312.310 263.130 C 312.213 262.840,312.014 263.757,311.866 265.168 M252.282 267.550 C 252.127 268.293,252.020 269.373,252.044 269.950 C 252.073 270.642,252.210 270.387,252.447 269.200 C 252.645 268.210,252.752 267.130,252.685 266.800 C 252.619 266.470,252.438 266.808,252.282 267.550 M311.046 272.246 C 310.900 273.493,310.859 274.593,310.957 274.690 C 311.054 274.788,311.261 273.854,311.415 272.615 C 311.570 271.377,311.610 270.277,311.505 270.171 C 311.399 270.066,311.193 270.999,311.046 272.246 M251.472 274.604 C 251.327 275.482,251.230 276.830,251.255 277.600 C 251.284 278.478,251.429 278.030,251.644 276.400 C 252.024 273.515,251.887 272.089,251.472 274.604 M310.213 280.213 C 310.057 281.671,310.014 282.947,310.116 283.050 C 310.219 283.152,310.431 282.044,310.587 280.587 C 310.743 279.129,310.786 277.853,310.684 277.750 C 310.581 277.648,310.369 278.756,310.213 280.213 M250.893 281.600 C 250.893 282.370,250.975 282.685,251.076 282.300 C 251.176 281.915,251.176 281.285,251.076 280.900 C 250.975 280.515,250.893 280.830,250.893 281.600 M250.524 285.400 C 250.526 286.720,250.601 287.212,250.690 286.493 C 250.779 285.774,250.777 284.694,250.686 284.093 C 250.595 283.492,250.522 284.080,250.524 285.400 M309.693 286.800 C 309.693 287.570,309.775 287.885,309.876 287.500 C 309.976 287.115,309.976 286.485,309.876 286.100 C 309.775 285.715,309.693 286.030,309.693 286.800 M250.101 289.800 C 250.105 290.680,250.187 290.993,250.283 290.495 C 250.379 289.998,250.375 289.278,250.275 288.895 C 250.175 288.513,250.096 288.920,250.101 289.800 M309.328 291.200 C 309.328 292.630,309.401 293.215,309.489 292.500 C 309.578 291.785,309.578 290.615,309.489 289.900 C 309.401 289.185,309.328 289.770,309.328 291.200 M249.400 297.200 C 249.242 298.985,249.199 300.532,249.303 300.637 C 249.408 300.742,249.622 299.365,249.778 297.578 C 249.934 295.790,249.977 294.244,249.874 294.141 C 249.771 294.038,249.558 295.415,249.400 297.200 M308.893 295.600 C 308.893 296.370,308.975 296.685,309.076 296.300 C 309.176 295.915,309.176 295.285,309.076 294.900 C 308.975 294.515,308.893 294.830,308.893 295.600 M308.474 301.044 C 308.433 302.168,308.315 303.968,308.211 305.044 L 308.022 307.000 308.430 305.042 C 308.654 303.966,308.773 302.166,308.693 301.042 L 308.548 299.000 308.474 301.044 M248.689 306.759 C 248.530 308.166,248.425 310.236,248.455 311.359 C 248.494 312.801,248.612 312.285,248.858 309.600 C 249.259 305.229,249.121 302.924,248.689 306.759 M307.446 315.336 C 307.277 317.940,307.224 320.157,307.329 320.262 C 307.586 320.519,308.130 312.345,307.920 311.371 C 307.829 310.947,307.616 312.731,307.446 315.336 M248.114 318.600 C 248.117 319.700,248.195 320.103,248.287 319.495 C 248.379 318.886,248.377 317.986,248.282 317.495 C 248.187 317.003,248.111 317.500,248.114 318.600 M247.748 324.800 C 247.748 327.110,247.814 328.055,247.895 326.900 C 247.976 325.745,247.976 323.855,247.895 322.700 C 247.814 321.545,247.748 322.490,247.748 324.800 M306.934 328.400 C 306.934 330.050,307.005 330.725,307.091 329.900 C 307.178 329.075,307.178 327.725,307.091 326.900 C 307.005 326.075,306.934 326.750,306.934 328.400 M306.551 336.000 C 306.551 338.530,306.616 339.565,306.696 338.300 C 306.775 337.035,306.775 334.965,306.696 333.700 C 306.616 332.435,306.551 333.470,306.551 336.000 M247.334 334.800 C 247.334 336.450,247.405 337.125,247.491 336.300 C 247.578 335.475,247.578 334.125,247.491 333.300 C 247.405 332.475,247.334 333.150,247.334 334.800 M81.818 339.300 C 81.968 339.795,82.255 340.376,82.456 340.591 C 82.657 340.806,82.619 340.401,82.372 339.691 C 81.865 338.238,81.397 337.908,81.818 339.300 M246.964 346.600 C 246.963 350.340,247.023 351.924,247.097 350.120 C 247.171 348.315,247.172 345.255,247.098 343.320 C 247.025 341.384,246.964 342.860,246.964 346.600 M82.815 341.400 C 82.817 341.620,83.186 342.250,83.636 342.800 C 84.179 343.464,84.315 343.531,84.040 343.000 C 83.366 341.695,82.812 340.972,82.815 341.400 M306.153 349.800 C 306.153 352.440,306.218 353.468,306.297 352.084 C 306.375 350.701,306.374 348.541,306.295 347.284 C 306.216 346.028,306.152 347.160,306.153 349.800 M166.893 349.200 C 166.893 349.970,166.975 350.285,167.076 349.900 C 167.176 349.515,167.176 348.885,167.076 348.500 C 166.975 348.115,166.893 348.430,166.893 349.200 M32.893 349.800 C 32.894 350.460,33.032 351.540,33.200 352.200 C 33.623 353.863,33.642 352.226,33.223 350.200 C 32.945 348.855,32.892 348.791,32.893 349.800 M95.600 350.800 C 96.150 350.976,96.960 351.120,97.400 351.120 C 98.033 351.120,97.992 351.054,97.200 350.800 C 96.650 350.624,95.840 350.480,95.400 350.480 C 94.767 350.480,94.808 350.546,95.600 350.800 M102.600 350.800 L 101.800 351.144 102.600 351.144 C 103.040 351.144,103.760 350.989,104.200 350.800 L 105.000 350.456 104.200 350.456 C 103.760 350.456,103.040 350.611,102.600 350.800 M165.552 356.313 C 165.421 357.107,165.479 357.481,165.701 357.259 C 165.903 357.057,166.001 356.467,165.919 355.946 C 165.793 355.145,165.737 355.202,165.552 356.313 M246.587 378.200 C 246.587 390.300,246.637 395.308,246.700 389.328 C 246.762 383.349,246.762 373.449,246.700 367.328 C 246.638 361.208,246.587 366.100,246.587 378.200 M305.783 378.000 C 305.783 387.130,305.835 390.865,305.900 386.300 C 305.964 381.735,305.964 374.265,305.900 369.700 C 305.835 365.135,305.783 368.870,305.783 378.000 M50.771 384.804 C 53.097 387.117,55.630 389.425,56.400 389.933 C 57.467 390.638,57.372 390.496,56.000 389.337 C 55.010 388.500,52.477 386.192,50.371 384.208 L 46.543 380.600 50.771 384.804 M149.781 384.100 L 148.200 385.800 149.900 384.219 C 151.481 382.748,151.784 382.400,151.481 382.400 C 151.416 382.400,150.651 383.165,149.781 384.100 M145.393 388.011 C 145.254 388.237,143.241 389.767,140.920 391.411 C 138.599 393.055,136.836 394.400,137.003 394.400 C 137.434 394.400,144.927 389.011,145.566 388.241 C 145.858 387.889,145.997 387.600,145.873 387.600 C 145.749 387.600,145.533 387.785,145.393 388.011 M61.400 393.407 C 61.840 393.766,62.560 394.235,63.000 394.451 L 63.800 394.844 63.000 394.193 C 62.560 393.834,61.840 393.365,61.400 393.149 L 60.600 392.756 61.400 393.407 M67.200 396.597 C 67.200 396.868,70.449 398.484,70.630 398.303 C 70.714 398.219,69.976 397.759,68.991 397.281 C 68.006 396.802,67.200 396.494,67.200 396.597 M305.862 400.983 C 305.572 401.739,247.437 401.944,247.063 401.190 C 246.952 400.965,246.906 401.010,246.963 401.290 C 247.142 402.174,305.827 402.228,306.166 401.345 C 306.305 400.982,306.347 400.613,306.259 400.525 C 306.171 400.437,305.992 400.643,305.862 400.983 M78.000 401.141 C 78.330 401.334,79.140 401.609,79.800 401.752 C 80.568 401.918,80.784 401.884,80.400 401.659 C 80.070 401.466,79.260 401.191,78.600 401.048 C 77.832 400.882,77.616 400.916,78.000 401.141 M120.800 401.200 C 119.976 401.464,119.941 401.526,120.600 401.554 C 121.040 401.573,121.670 401.413,122.000 401.200 C 122.701 400.747,122.214 400.747,120.800 401.200 M82.400 402.400 C 82.730 402.613,83.360 402.778,83.800 402.766 L 84.600 402.744 83.800 402.400 C 82.604 401.886,81.605 401.886,82.400 402.400 M116.200 402.400 C 115.696 402.617,115.622 402.744,116.000 402.744 C 116.330 402.744,116.960 402.589,117.400 402.400 C 117.904 402.183,117.978 402.056,117.600 402.056 C 117.270 402.056,116.640 402.211,116.200 402.400 M86.000 403.179 C 86.330 403.404,87.125 403.591,87.767 403.594 C 89.304 403.602,88.984 403.370,87.000 403.038 C 85.854 402.846,85.570 402.886,86.000 403.179 M112.200 403.200 C 111.111 403.477,111.093 403.507,112.000 403.525 C 112.550 403.535,113.360 403.389,113.800 403.200 C 114.786 402.776,113.866 402.776,112.200 403.200 M91.200 404.020 C 92.152 404.306,98.635 404.484,97.800 404.201 C 97.580 404.127,95.780 403.988,93.800 403.892 C 91.820 403.797,90.650 403.854,91.200 404.020 M100.900 404.296 C 102.165 404.375,104.235 404.375,105.500 404.296 C 106.765 404.216,105.730 404.151,103.200 404.151 C 100.670 404.151,99.635 404.216,100.900 404.296 " stroke="none" fill="#a1a1a1" fill-rule="evenodd"></path></g></svg>